<?xml version="1.0" encoding="UTF-8" standalone="no"?>
<svg
   width="22.397003"
   height="20.755981"
   viewBox="0 0 22.397003 20.755981"
   fill="none"
   version="1.1"
   id="svg7483"
   sodipodi:docname="Arrows@2x.svg"
   xmlns:inkscape="http://www.inkscape.org/namespaces/inkscape"
   xmlns:sodipodi="http://sodipodi.sourceforge.net/DTD/sodipodi-0.dtd"
   xmlns="http://www.w3.org/2000/svg"
   xmlns:svg="http://www.w3.org/2000/svg">
  <sodipodi:namedview
     id="namedview7485"
     pagecolor="#505050"
     bordercolor="#eeeeee"
     borderopacity="1"
     inkscape:showpageshadow="0"
     inkscape:pageopacity="0"
     inkscape:pagecheckerboard="0"
     inkscape:deskcolor="#505050"
     showgrid="false" />
  <g
     clip-path="url(#clip0_1498_65522)"
     id="g7476"
     transform="translate(-261,-922)">
    <path
       d="m 281.075,942.362 c 0.258,0.254 0.584,0.394 0.953,0.394 0.766,0 1.369,-0.594 1.369,-1.353 0,-0.373 -0.162,-0.719 -0.419,-0.983 l -8.823,-8.62 v 1.146 l 8.823,-8.602 c 0.259,-0.267 0.419,-0.62 0.419,-0.981 0,-0.761 -0.603,-1.363 -1.369,-1.363 -0.371,0 -0.69,0.138 -0.953,0.394 l -9.132,8.933 c -0.313,0.286 -0.474,0.647 -0.478,1.055 0,0.396 0.163,0.74 0.478,1.055 z"
       fill="black"
       id="path7178"
       style="fill:#ffffff" />
    <path
       d="m 270.608,942.362 c 0.258,0.254 0.575,0.394 0.953,0.394 0.766,0 1.362,-0.594 1.362,-1.353 0,-0.373 -0.153,-0.719 -0.412,-0.983 l -8.832,-8.62 v 1.146 l 8.832,-8.602 c 0.261,-0.267 0.412,-0.62 0.412,-0.981 0,-0.761 -0.596,-1.363 -1.362,-1.363 -0.38,0 -0.697,0.138 -0.953,0.394 l -9.132,8.933 c -0.311,0.286 -0.474,0.647 -0.476,1.055 0,0.396 0.153,0.74 0.466,1.055 z"
       fill="black"
       id="path7180"
       style="fill:#ffffff" />
  </g>
  <defs
     id="defs7481">
    <clipPath
       id="clip0_1498_65522">
      <rect
         width="712"
         height="2436"
         rx="50"
         fill="#ffffff"
         id="rect7478"
         x="0"
         y="0" />
    </clipPath>
  </defs>
</svg>
