<?xml version="1.0" encoding="UTF-8" standalone="no"?>
<!-- Created with Inkscape (http://www.inkscape.org/) -->

<svg
   width="208.42583mm"
   height="82.285439mm"
   viewBox="0 0 208.42583 82.285439"
   version="1.1"
   id="svg5"
   xml:space="preserve"
   inkscape:version="1.2.1 (9c6d41e410, 2022-07-14)"
   sodipodi:docname="welcome.svg"
   xmlns:inkscape="http://www.inkscape.org/namespaces/inkscape"
   xmlns:sodipodi="http://sodipodi.sourceforge.net/DTD/sodipodi-0.dtd"
   xmlns="http://www.w3.org/2000/svg"
   xmlns:svg="http://www.w3.org/2000/svg"><sodipodi:namedview
     id="namedview7"
     pagecolor="#505050"
     bordercolor="#eeeeee"
     borderopacity="1"
     inkscape:showpageshadow="0"
     inkscape:pageopacity="0"
     inkscape:pagecheckerboard="0"
     inkscape:deskcolor="#505050"
     inkscape:document-units="mm"
     showgrid="false"
     inkscape:zoom="1"
     inkscape:cx="318"
     inkscape:cy="100"
     inkscape:window-width="1920"
     inkscape:window-height="1027"
     inkscape:window-x="-4"
     inkscape:window-y="-4"
     inkscape:window-maximized="1"
     inkscape:current-layer="layer1" /><defs
     id="defs2"><filter
       style="color-interpolation-filters:sRGB"
       inkscape:label="Blur"
       id="filter376"
       x="-0.050733033"
       y="-0.15217456"
       width="1.1014661"
       height="1.3043491"><feGaussianBlur
         stdDeviation="4 4"
         result="blur"
         id="feGaussianBlur374" /></filter><filter
       style="color-interpolation-filters:sRGB;"
       inkscape:label="Blur"
       id="filter2185"
       x="-0.025366517"
       y="-0.076087281"
       width="1.050733"
       height="1.1521746"><feGaussianBlur
         stdDeviation="2 2"
         result="blur"
         id="feGaussianBlur2183" /></filter></defs><g
     inkscape:label="Layer 1"
     inkscape:groupmode="layer"
     id="layer1"
     transform="translate(1.920613,-176.55449)"><path
       style="fill:#6500eb;stroke-width:0.264583;fill-opacity:1;filter:url(#filter2185)"
       d="m 136.74241,249.08403 c -2.37507,-0.65348 -3.9921,-1.98461 -4.9293,-4.05779 -0.5612,-1.24141 -1.05472,-3.17986 -1.0518,-4.82643 0.004,-2.51842 0.54578,-3.64967 1.20212,-5.42396 0.61361,-1.61292 1.25056,-3.06213 1.97345,-4.3039 0.5244,-0.90604 1.71905,-2.58645 2.72624,-3.60561 0.71669,-0.60839 2.7533,-2.18427 4.66639,-2.5715 1.12281,-0.14677 1.6384,-0.0556 2.42436,0.47149 1.43303,0.96103 2.18399,2.65071 2.02526,4.5569 -0.157,1.88545 -1.42306,4.62422 -2.83549,6.37861 -1.31471,1.30487 -1.46667,1.35196 -2.65145,1.91134 -1.42687,0.54686 -1.87201,0.65676 -3.71703,0.5303 l -2.08169,-0.14268 -0.0355,1.23176 c -0.10309,3.57379 0.47518,5.2651 2.12974,6.22903 1.90341,1.1089 5.54035,0.31697 11.04092,-2.40413 8.26496,-4.54169 16.38416,-10.10339 23.34415,-15.589 0.0545,-0.0433 -0.20415,-0.43904 -0.57476,-0.87948 -0.87005,-1.03399 -1.71708,-3.30486 -2.22621,-5.96842 -1.40578,-7.35447 2.12166,-19.1876 8.00551,-26.85521 1.51167,-1.96996 4.30787,-4.59144 5.27973,-4.94983 1.17239,-0.43234 7.43839,-0.96835 9.55215,-0.81711 2.04868,0.14658 4.08459,0.92758 5.19837,1.99417 0.88289,0.84548 0.92867,1.18737 0.13229,0.98793 -0.48591,-0.12168 -0.93569,0.21807 -2.4474,1.84865 -1.89968,1.88423 -3.37739,3.43304 -4.83873,5.16952 -8.2146,9.30855 -13.40689,17.69812 -15.27609,24.68272 -0.28997,1.51302 -0.76806,3.21047 -0.96228,4.55374 -0.29017,0.65931 -0.18858,0.7947 -0.98606,0.80234 -0.72896,0.007 -1.12534,0.25421 -2.1211,1.32292 -3.49558,3.75169 -11.96415,10.47998 -18.10576,14.38506 -6.34632,4.03524 -12.09308,6.09979 -14.85998,5.33849 z m 2.9676,-13.41345 c 2.42959,-1.39816 4.3504,-5.49175 3.51885,-7.49929 -1.00398,-2.42381 -4.6289,0.25841 -7.06479,5.22751 -0.66309,1.35267 -1.15705,2.50797 -1.0977,2.56733 0.7976,0.7976 2.98612,0.65831 4.64364,-0.29555 z m 32.06653,-12.64715 c 0.70923,-4.07273 3.13245,-9.63822 6.28775,-14.44133 1.00377,-1.52797 2.15126,-3.34067 2.54997,-4.02823 1.90989,-3.29347 6.91306,-9.06155 9.77036,-11.26408 0.76512,-0.58979 2.07373,-1.48304 2.90803,-1.98501 l 1.5169,-0.91266 -1.12003,-0.28493 c -2.08959,-0.53158 -3.54308,-0.59563 -7.09771,-0.31273 -1.95102,0.15528 -3.74635,0.34343 -3.98963,0.41811 -0.59779,0.18352 -3.04709,3.25179 -4.99272,6.25443 -3.1781,4.90469 -5.45977,10.45338 -6.61381,16.08385 -0.47718,2.32809 -0.54719,3.35674 -0.43217,6.35 0.11373,2.95992 0.52874,5.82083 0.84437,5.82083 0.0401,0 0.20603,-0.76421 0.36869,-1.69825 z m -79.296941,24.82709 c -1.448308,-0.72172 -3.23148,-2.53055 -4.020986,-4.07884 -0.802556,-1.57388 -1.590159,-4.48867 -1.590159,-5.88491 v -1.33125 l -1.256771,1.17041 c -3.937466,3.66689 -9.902016,6.57492 -13.485593,6.57492 -1.357059,0 -3.612405,-0.68528 -4.70421,-1.70163 -1.072105,-0.99801 -2.425946,-3.50792 -2.775175,-5.76372 -0.788712,-5.09462 1.527961,-12.03879 5.276622,-15.81653 1.693428,-1.5937 1.713504,-1.53882 2.827748,-2.25083 0.371811,-0.24362 1.337715,-0.6706 2.146454,-0.94885 4.203805,-1.44632 7.583551,0.33486 7.896762,4.16173 l 0.126868,1.55007 -0.548974,-1.08137 c -0.301937,-0.59476 -0.968221,-1.48773 -1.480632,-1.98438 -0.818266,-0.79309 -1.099608,-0.903 -2.311588,-0.903 -1.993217,0 -4.486034,1.29029 -6.320097,3.2713 -3.304767,3.56954 -5.180692,10.20435 -4.097195,14.49103 0.322893,1.27747 1.298782,2.7593 2.105772,3.19749 5.593909,1.55291 11.040071,-1.41666 15.459083,-4.88711 0.927753,-0.73479 1.079458,-1.02197 1.368491,-2.59062 0.17879,-0.97032 0.553506,-2.36541 0.832705,-3.1002 0.451405,-1.26116 0.736661,-1.6756 1.114878,-2.40134 0.225645,-0.47318 1.014233,-1.52117 1.752418,-2.32886 3.077493,-3.36727 7.430066,-3.92087 10.91682,-1.38851 1.42279,1.09583 1.53246,1.27021 2.12709,2.14219 1.2969,1.885 1.81397,3.70713 1.81397,6.39243 0,2.7657 -0.18122,4.46894 -1.87296,8.33448 -0.59163,1.51795 -1.58702,2.75401 -2.07671,3.39341 -0.84633,1.23395 -3.018707,3.4226 -4.041621,3.94445 -1.441275,0.73528 -3.486422,0.66349 -5.182976,-0.18194 z m 2.798258,-2.64465 c 2.978089,-1.48405 6.304033,-6.1945 7.364083,-10.42956 1.25609,-5.01832 -1.49987,-9.79005 -5.654338,-9.79005 -2.531139,0 -5.198118,2.3773 -6.530126,5.82084 l -0.460552,1.19062 0.684723,-0.64143 c 0.930849,-0.872 0.863132,-0.47559 -0.129828,0.76002 -1.644981,2.04696 -1.587847,6.76047 0.125857,10.38294 0.683358,1.4445 2.36442,3.3891 2.9298,3.3891 0.165457,0 0.917128,-0.30712 1.670381,-0.68248 z m 10.262623,0.2667 c -0.22868,-0.22867 -0.41578,-0.77438 -0.41578,-1.21269 0,-1.80704 2.08124,-8.74261 3.63996,-12.12987 1.03458,-2.24825 2.20428,-5.54892 2.6957,-7.60677 0.2872,-1.20268 0.41781,-1.38906 0.97339,-1.38906 0.50298,0 0.6764,0.1736 0.80231,0.80313 0.14415,0.72077 0.20457,0.76336 0.58918,0.41529 2.01029,-1.81929 3.96353,-0.30352 3.63682,2.82228 l -0.16306,1.56004 2.23122,-2.08755 c 3.58833,-3.35727 6.23489,-4.32809 7.72812,-2.83485 0.62052,0.62051 0.66925,0.82912 0.57178,2.44739 -0.17425,2.89269 -2.30245,7.24998 -6.84349,14.0114 -2.23671,3.33036 -2.94646,3.95562 -3.11763,2.74646 -0.14425,-1.019 0.66334,-3.07296 3.24061,-8.24192 2.65559,-5.32606 3.75265,-7.86731 3.50376,-8.1162 -0.46829,-0.46828 -4.65203,3.64455 -5.43593,4.42844 -0.94675,1.53584 -2.25898,3.07068 -3.24909,4.48292 -0.9061,1.30754 -1.86213,2.44548 -2.12451,2.52876 -0.7141,0.22665 -1.40955,-0.0808 -1.78974,-0.79118 -0.29564,-0.5524 -0.2348,-0.90667 0.47484,-2.76501 0.44766,-1.1723 1.11409,-3.2367 1.48096,-4.58756 0.61622,-2.26896 0.62741,-2.40572 0.14693,-1.79467 -1.43231,1.82154 -2.9449,5.41651 -4.50284,10.70186 -1.89264,6.42085 -1.9907,6.66699 -2.7356,6.8669 -0.8075,0.2167 -0.87717,0.20329 -1.33791,-0.25745 z m -46.844839,-3.08995 c 0.100663,-3.68198 0.785138,-7.59805 2.126221,-12.16471 0.501147,-1.70651 0.911174,-3.16848 0.911174,-3.24884 0,-0.0803 -1.513874,1.41644 -3.364163,3.3262 -6.625884,6.83886 -12.198668,9.98874 -15.905981,8.99046 -2.519177,-0.67834 -4.013189,-3.04393 -4.013189,-6.3544 0,-5.83097 5.266264,-13.57912 11.431413,-16.81881 3.177101,-1.66952 5.416116,-2.08419 7.208914,-1.33511 0.492935,0.20596 1.024893,0.61485 1.182127,0.90864 0.476874,0.89105 0.322529,2.50819 -0.372512,3.90295 -0.879928,1.76578 -4.468974,6.00264 -7.731223,9.12668 -2.558336,2.44995 -7.118562,5.79558 -7.899599,5.79558 -0.5662,0 -0.460137,0.47262 0.269896,1.20265 1.678376,1.24225 4.12389,0.49556 6.014218,-0.74604 3.11033,-1.56385 6.27848,-3.84706 10.709791,-7.71827 2.714429,-2.37134 3.554026,-3.26311 3.805584,-4.04205 0.612746,-1.89736 3.48266,-8.95092 5.466299,-13.43486 4.597983,-10.39354 9.042332,-17.97409 12.2222,-20.84691 1.169496,-1.05657 1.869221,-1.21709 2.510415,-0.57589 0.364037,0.36403 0.303569,0.53975 -0.593699,1.72525 -4.054213,5.35654 -13.111747,23.89215 -17.512028,35.83713 -2.363885,6.417 -4.742598,15.52259 -4.75543,18.20354 -0.0061,1.28512 -0.372311,1.72495 -1.073896,1.28995 -0.589905,-0.81827 -0.671814,-1.75085 -0.636535,-3.02313 z M 44.188105,231.36455 c 3.401238,-2.56593 9.669614,-9.34472 11.335602,-12.25862 1.219714,-2.13335 0.783379,-2.47796 -1.933218,-1.52683 -4.409122,1.54371 -9.545719,7.00267 -11.13722,11.83616 -0.669404,2.03303 -0.918474,3.5085 -0.592256,3.5085 0.143158,0 1.19035,-0.70165 2.327092,-1.55921 z M 176.56221,243.5989 c -2.30642,-1.59965 -4.93681,-3.70891 -6.27298,-6.203 -1.05396,-2.05836 -1.11541,-3.19322 -0.22134,-4.08729 0.79317,-0.79318 1.55399,-0.81985 2.89435,-0.10145 l 1.02241,0.54798 0.82576,-0.76818 c 1.49422,-1.39004 2.34202,-1.91528 3.09149,-1.91528 2.24849,0 2.07008,2.53526 -0.57387,8.15499 l -1.30161,2.76659 0.69148,0.90659 c 0.79737,1.04539 0.76629,1.18494 -0.15569,0.69905 z m -0.2612,-5.38347 c 0.95946,-2.17865 1.83549,-4.72183 1.84555,-5.35781 0.008,-0.48167 -0.60954,-0.0835 -2.35836,1.52135 -1.03071,0.94589 -1.97184,1.71979 -2.09139,1.71979 -0.11955,0 -0.497,-0.29765 -0.83877,-0.66146 -0.55813,-0.5941 -1.32292,-0.89242 -1.32292,-0.51602 0,0.46396 3.42769,6.0413 3.60361,5.86359 0.0304,-0.0307 0.55346,-1.18699 1.16228,-2.56944 z m -151.639795,5.35172 c -1.129105,-0.14408 -2.032072,-1.34191 -2.528721,-3.35447 -0.391899,-1.58808 -0.408879,-2.17103 -0.134987,-4.6342 0.172317,-1.54968 0.605092,-3.9376 0.961722,-5.30649 0.356631,-1.36889 0.609302,-2.52801 0.561492,-2.57582 -0.04781,-0.0478 -1.455067,1.67439 -3.127238,3.8271 -1.672171,2.15272 -3.515037,4.50935 -4.095257,5.23695 -0.811328,0.80649 -1.391437,1.44141 -1.537701,1.77959 -0.09335,0.24327 -0.827808,0.98407 -1.632129,1.64623 -1.067162,0.87856 -1.693383,1.20394 -2.31704,1.20394 -1.180185,0 -1.8506855,-0.78122 -1.6412331,-1.91224 1.3206931,-7.13164 1.5295461,-8.84033 1.6743211,-13.69818 0.300714,-10.09028 -0.826927,-21.20888 -2.815921,-27.76512 -0.3788235,-1.2487 -0.4399722,-1.79629 -0.2289789,-2.05052 0.7477851,-0.30817 1.376386,1.02657 1.6489509,1.6998 1.63184,4.28666 2.81772,10.07602 3.45583,16.87105 0.8152,8.68082 0.807961,15.05344 -0.02304,20.28149 -0.171873,1.08131 -0.154672,1.12659 0.288902,0.7605 0.259412,-0.21409 3.463279,-4.26221 7.119706,-8.99583 7.579145,-9.81197 8.237251,-10.59095 8.947575,-10.59095 1.941204,0 1.984162,1.32916 0.181854,5.62671 -3.52848,8.41356 -5.088161,14.90068 -4.294646,17.86256 0.154319,0.57601 0.193964,0.55837 0.89181,-0.39688 2.95359,-5.22606 6.106491,-10.41905 8.982082,-15.49077 7.180527,-12.73532 20.383976,-35.25567 21.550434,-36.7573 0.753523,-0.97005 0.950701,-0.91696 0.950701,0.25598 0,2.51085 -2.608818,7.73924 -13.276744,26.60822 -3.254903,5.50648 -6.236594,11.07102 -8.806843,15.61029 -7.363231,13.04535 -8.495354,14.54622 -10.754905,14.2579 z"
       id="path1064"
       sodipodi:nodetypes="cssccccssccscssccsssssssccccsssccssscsssssscssssssssssscssssccsscsssssccsccsccsccssssssscssssscssssssscsssssssccsssssssccssssssssssssccssssssscccsssssssccsscssscscscsssssscsssssccsssssccsssssssccsscccc" /><path
       style="fill:#944dff;stroke-width:0.264583;filter:url(#filter376);fill-opacity:1"
       d="m 136.74241,249.08403 c -2.37507,-0.65348 -3.9921,-1.98461 -4.9293,-4.05779 -0.5612,-1.24141 -1.05472,-3.17986 -1.0518,-4.82643 0.004,-2.51842 0.54578,-3.64967 1.20212,-5.42396 0.61361,-1.61292 1.25056,-3.06213 1.97345,-4.3039 0.5244,-0.90604 1.71905,-2.58645 2.72624,-3.60561 0.71669,-0.60839 2.7533,-2.18427 4.66639,-2.5715 1.12281,-0.14677 1.6384,-0.0556 2.42436,0.47149 1.43303,0.96103 2.18399,2.65071 2.02526,4.5569 -0.157,1.88545 -1.42306,4.62422 -2.83549,6.37861 -1.31471,1.30487 -1.46667,1.35196 -2.65145,1.91134 -1.42687,0.54686 -1.87201,0.65676 -3.71703,0.5303 l -2.08169,-0.14268 -0.0355,1.23176 c -0.10309,3.57379 0.47518,5.2651 2.12974,6.22903 1.90341,1.1089 5.54035,0.31697 11.04092,-2.40413 8.26496,-4.54169 16.38416,-10.10339 23.34415,-15.589 0.0545,-0.0433 -0.20415,-0.43904 -0.57476,-0.87948 -0.87005,-1.03399 -1.71708,-3.30486 -2.22621,-5.96842 -1.40578,-7.35447 2.12166,-19.1876 8.00551,-26.85521 1.51167,-1.96996 4.30787,-4.59144 5.27973,-4.94983 1.17239,-0.43234 7.43839,-0.96835 9.55215,-0.81711 2.04868,0.14658 4.08459,0.92758 5.19837,1.99417 0.88289,0.84548 0.92867,1.18737 0.13229,0.98793 -0.48591,-0.12168 -0.93569,0.21807 -2.4474,1.84865 -1.89968,1.88423 -3.37739,3.43304 -4.83873,5.16952 -8.2146,9.30855 -13.40689,17.69812 -15.27609,24.68272 -0.28997,1.51302 -0.76806,3.21047 -0.96228,4.55374 -0.29017,0.65931 -0.18858,0.7947 -0.98606,0.80234 -0.72896,0.007 -1.12534,0.25421 -2.1211,1.32292 -3.49558,3.75169 -11.96415,10.47998 -18.10576,14.38506 -6.34632,4.03524 -12.09308,6.09979 -14.85998,5.33849 z m 2.9676,-13.41345 c 2.42959,-1.39816 4.3504,-5.49175 3.51885,-7.49929 -1.00398,-2.42381 -4.6289,0.25841 -7.06479,5.22751 -0.66309,1.35267 -1.15705,2.50797 -1.0977,2.56733 0.7976,0.7976 2.98612,0.65831 4.64364,-0.29555 z m 32.06653,-12.64715 c 0.70923,-4.07273 3.13245,-9.63822 6.28775,-14.44133 1.00377,-1.52797 2.15126,-3.34067 2.54997,-4.02823 1.90989,-3.29347 6.91306,-9.06155 9.77036,-11.26408 0.76512,-0.58979 2.07373,-1.48304 2.90803,-1.98501 l 1.5169,-0.91266 -1.12003,-0.28493 c -2.08959,-0.53158 -3.54308,-0.59563 -7.09771,-0.31273 -1.95102,0.15528 -3.74635,0.34343 -3.98963,0.41811 -0.59779,0.18352 -3.04709,3.25179 -4.99272,6.25443 -3.1781,4.90469 -5.45977,10.45338 -6.61381,16.08385 -0.47718,2.32809 -0.54719,3.35674 -0.43217,6.35 0.11373,2.95992 0.52874,5.82083 0.84437,5.82083 0.0401,0 0.20603,-0.76421 0.36869,-1.69825 z m -79.296941,24.82709 c -1.448308,-0.72172 -3.23148,-2.53055 -4.020986,-4.07884 -0.802556,-1.57388 -1.590159,-4.48867 -1.590159,-5.88491 v -1.33125 l -1.256771,1.17041 c -3.937466,3.66689 -9.902016,6.57492 -13.485593,6.57492 -1.357059,0 -3.612405,-0.68528 -4.70421,-1.70163 -1.072105,-0.99801 -2.425946,-3.50792 -2.775175,-5.76372 -0.788712,-5.09462 1.527961,-12.03879 5.276622,-15.81653 1.693428,-1.5937 1.713504,-1.53882 2.827748,-2.25083 0.371811,-0.24362 1.337715,-0.6706 2.146454,-0.94885 4.203805,-1.44632 7.583551,0.33486 7.896762,4.16173 l 0.126868,1.55007 -0.548974,-1.08137 c -0.301937,-0.59476 -0.968221,-1.48773 -1.480632,-1.98438 -0.818266,-0.79309 -1.099608,-0.903 -2.311588,-0.903 -1.993217,0 -4.486034,1.29029 -6.320097,3.2713 -3.304767,3.56954 -5.180692,10.20435 -4.097195,14.49103 0.322893,1.27747 1.298782,2.7593 2.105772,3.19749 5.593909,1.55291 11.040071,-1.41666 15.459083,-4.88711 0.927753,-0.73479 1.079458,-1.02197 1.368491,-2.59062 0.17879,-0.97032 0.553506,-2.36541 0.832705,-3.1002 0.451405,-1.26116 0.736661,-1.6756 1.114878,-2.40134 0.225645,-0.47318 1.014233,-1.52117 1.752418,-2.32886 3.077493,-3.36727 7.430066,-3.92087 10.91682,-1.38851 1.42279,1.09583 1.53246,1.27021 2.12709,2.14219 1.2969,1.885 1.81397,3.70713 1.81397,6.39243 0,2.7657 -0.18122,4.46894 -1.87296,8.33448 -0.59163,1.51795 -1.58702,2.75401 -2.07671,3.39341 -0.84633,1.23395 -3.018707,3.4226 -4.041621,3.94445 -1.441275,0.73528 -3.486422,0.66349 -5.182976,-0.18194 z m 2.798258,-2.64465 c 2.978089,-1.48405 6.304033,-6.1945 7.364083,-10.42956 1.25609,-5.01832 -1.49987,-9.79005 -5.654338,-9.79005 -2.531139,0 -5.198118,2.3773 -6.530126,5.82084 l -0.460552,1.19062 0.684723,-0.64143 c 0.930849,-0.872 0.863132,-0.47559 -0.129828,0.76002 -1.644981,2.04696 -1.587847,6.76047 0.125857,10.38294 0.683358,1.4445 2.36442,3.3891 2.9298,3.3891 0.165457,0 0.917128,-0.30712 1.670381,-0.68248 z m 10.262623,0.2667 c -0.22868,-0.22867 -0.41578,-0.77438 -0.41578,-1.21269 0,-1.80704 2.08124,-8.74261 3.63996,-12.12987 1.03458,-2.24825 2.20428,-5.54892 2.6957,-7.60677 0.2872,-1.20268 0.41781,-1.38906 0.97339,-1.38906 0.50298,0 0.6764,0.1736 0.80231,0.80313 0.14415,0.72077 0.20457,0.76336 0.58918,0.41529 2.01029,-1.81929 3.96353,-0.30352 3.63682,2.82228 l -0.16306,1.56004 2.23122,-2.08755 c 3.58833,-3.35727 6.23489,-4.32809 7.72812,-2.83485 0.62052,0.62051 0.66925,0.82912 0.57178,2.44739 -0.17425,2.89269 -2.30245,7.24998 -6.84349,14.0114 -2.23671,3.33036 -2.94646,3.95562 -3.11763,2.74646 -0.14425,-1.019 0.66334,-3.07296 3.24061,-8.24192 2.65559,-5.32606 3.75265,-7.86731 3.50376,-8.1162 -0.46829,-0.46828 -4.65203,3.64455 -5.43593,4.42844 -0.94675,1.53584 -2.25898,3.07068 -3.24909,4.48292 -0.9061,1.30754 -1.86213,2.44548 -2.12451,2.52876 -0.7141,0.22665 -1.40955,-0.0808 -1.78974,-0.79118 -0.29564,-0.5524 -0.2348,-0.90667 0.47484,-2.76501 0.44766,-1.1723 1.11409,-3.2367 1.48096,-4.58756 0.61622,-2.26896 0.62741,-2.40572 0.14693,-1.79467 -1.43231,1.82154 -2.9449,5.41651 -4.50284,10.70186 -1.89264,6.42085 -1.9907,6.66699 -2.7356,6.8669 -0.8075,0.2167 -0.87717,0.20329 -1.33791,-0.25745 z m -46.844839,-3.08995 c 0.100663,-3.68198 0.785138,-7.59805 2.126221,-12.16471 0.501147,-1.70651 0.911174,-3.16848 0.911174,-3.24884 0,-0.0803 -1.513874,1.41644 -3.364163,3.3262 -6.625884,6.83886 -12.198668,9.98874 -15.905981,8.99046 -2.519177,-0.67834 -4.013189,-3.04393 -4.013189,-6.3544 0,-5.83097 5.266264,-13.57912 11.431413,-16.81881 3.177101,-1.66952 5.416116,-2.08419 7.208914,-1.33511 0.492935,0.20596 1.024893,0.61485 1.182127,0.90864 0.476874,0.89105 0.322529,2.50819 -0.372512,3.90295 -0.879928,1.76578 -4.468974,6.00264 -7.731223,9.12668 -2.558336,2.44995 -7.118562,5.79558 -7.899599,5.79558 -0.5662,0 -0.460137,0.47262 0.269896,1.20265 1.678376,1.24225 4.12389,0.49556 6.014218,-0.74604 3.11033,-1.56385 6.27848,-3.84706 10.709791,-7.71827 2.714429,-2.37134 3.554026,-3.26311 3.805584,-4.04205 0.612746,-1.89736 3.48266,-8.95092 5.466299,-13.43486 4.597983,-10.39354 9.042332,-17.97409 12.2222,-20.84691 1.169496,-1.05657 1.869221,-1.21709 2.510415,-0.57589 0.364037,0.36403 0.303569,0.53975 -0.593699,1.72525 -4.054213,5.35654 -13.111747,23.89215 -17.512028,35.83713 -2.363885,6.417 -4.742598,15.52259 -4.75543,18.20354 -0.0061,1.28512 -0.372311,1.72495 -1.073896,1.28995 -0.589905,-0.81827 -0.671814,-1.75085 -0.636535,-3.02313 z M 44.188105,231.36455 c 3.401238,-2.56593 9.669614,-9.34472 11.335602,-12.25862 1.219714,-2.13335 0.783379,-2.47796 -1.933218,-1.52683 -4.409122,1.54371 -9.545719,7.00267 -11.13722,11.83616 -0.669404,2.03303 -0.918474,3.5085 -0.592256,3.5085 0.143158,0 1.19035,-0.70165 2.327092,-1.55921 z M 176.56221,243.5989 c -2.30642,-1.59965 -4.93681,-3.70891 -6.27298,-6.203 -1.05396,-2.05836 -1.11541,-3.19322 -0.22134,-4.08729 0.79317,-0.79318 1.55399,-0.81985 2.89435,-0.10145 l 1.02241,0.54798 0.82576,-0.76818 c 1.49422,-1.39004 2.34202,-1.91528 3.09149,-1.91528 2.24849,0 2.07008,2.53526 -0.57387,8.15499 l -1.30161,2.76659 0.69148,0.90659 c 0.79737,1.04539 0.76629,1.18494 -0.15569,0.69905 z m -0.2612,-5.38347 c 0.95946,-2.17865 1.83549,-4.72183 1.84555,-5.35781 0.008,-0.48167 -0.60954,-0.0835 -2.35836,1.52135 -1.03071,0.94589 -1.97184,1.71979 -2.09139,1.71979 -0.11955,0 -0.497,-0.29765 -0.83877,-0.66146 -0.55813,-0.5941 -1.32292,-0.89242 -1.32292,-0.51602 0,0.46396 3.42769,6.0413 3.60361,5.86359 0.0304,-0.0307 0.55346,-1.18699 1.16228,-2.56944 z m -151.639795,5.35172 c -1.129105,-0.14408 -2.032072,-1.34191 -2.528721,-3.35447 -0.391899,-1.58808 -0.408879,-2.17103 -0.134987,-4.6342 0.172317,-1.54968 0.605092,-3.9376 0.961722,-5.30649 0.356631,-1.36889 0.609302,-2.52801 0.561492,-2.57582 -0.04781,-0.0478 -1.455067,1.67439 -3.127238,3.8271 -1.672171,2.15272 -3.515037,4.50935 -4.095257,5.23695 -0.811328,0.80649 -1.391437,1.44141 -1.537701,1.77959 -0.09335,0.24327 -0.827808,0.98407 -1.632129,1.64623 -1.067162,0.87856 -1.693383,1.20394 -2.31704,1.20394 -1.180185,0 -1.8506855,-0.78122 -1.6412331,-1.91224 1.3206931,-7.13164 1.5295461,-8.84033 1.6743211,-13.69818 0.300714,-10.09028 -0.826927,-21.20888 -2.815921,-27.76512 -0.3788235,-1.2487 -0.4399722,-1.79629 -0.2289789,-2.05052 0.7477851,-0.30817 1.376386,1.02657 1.6489509,1.6998 1.63184,4.28666 2.81772,10.07602 3.45583,16.87105 0.8152,8.68082 0.807961,15.05344 -0.02304,20.28149 -0.171873,1.08131 -0.154672,1.12659 0.288902,0.7605 0.259412,-0.21409 3.463279,-4.26221 7.119706,-8.99583 7.579145,-9.81197 8.237251,-10.59095 8.947575,-10.59095 1.941204,0 1.984162,1.32916 0.181854,5.62671 -3.52848,8.41356 -5.088161,14.90068 -4.294646,17.86256 0.154319,0.57601 0.193964,0.55837 0.89181,-0.39688 2.95359,-5.22606 6.106491,-10.41905 8.982082,-15.49077 7.180527,-12.73532 20.383976,-35.25567 21.550434,-36.7573 0.753523,-0.97005 0.950701,-0.91696 0.950701,0.25598 0,2.51085 -2.608818,7.73924 -13.276744,26.60822 -3.254903,5.50648 -6.236594,11.07102 -8.806843,15.61029 -7.363231,13.04535 -8.495354,14.54622 -10.754905,14.2579 z"
       id="path360"
       sodipodi:nodetypes="cssccccssccscssccsssssssccccsssccssscsssssscssssssssssscssssccsscsssssccsccsccsccssssssscssssscssssssscsssssssccsssssssccssssssssssssccssssssscccsssssssccsscssscscscsssssscsssssccsssssccsssssssccsscccc" /><path
       style="fill:#000000;stroke-width:0.264583"
       id="path250"
       d="" /><path
       style="fill:#ffffff;stroke-width:0.264583"
       d="m 136.74241,249.08403 c -2.37507,-0.65348 -3.9921,-1.98461 -4.9293,-4.05779 -0.5612,-1.24141 -1.05472,-3.17986 -1.0518,-4.82643 0.004,-2.51842 0.54578,-3.64967 1.20212,-5.42396 0.61361,-1.61292 1.25056,-3.06213 1.97345,-4.3039 0.5244,-0.90604 1.71905,-2.58645 2.72624,-3.60561 0.71669,-0.60839 2.7533,-2.18427 4.66639,-2.5715 1.12281,-0.14677 1.6384,-0.0556 2.42436,0.47149 1.43303,0.96103 2.18399,2.65071 2.02526,4.5569 -0.157,1.88545 -1.42306,4.62422 -2.83549,6.37861 -1.31471,1.30487 -1.46667,1.35196 -2.65145,1.91134 -1.42687,0.54686 -1.87201,0.65676 -3.71703,0.5303 l -2.08169,-0.14268 -0.0355,1.23176 c -0.10309,3.57379 0.47518,5.2651 2.12974,6.22903 1.90341,1.1089 5.54035,0.31697 11.04092,-2.40413 8.26496,-4.54169 16.38416,-10.10339 23.34415,-15.589 0.0545,-0.0433 -0.20415,-0.43904 -0.57476,-0.87948 -0.87005,-1.03399 -1.71708,-3.30486 -2.22621,-5.96842 -1.40578,-7.35447 2.12166,-19.1876 8.00551,-26.85521 1.51167,-1.96996 4.30787,-4.59144 5.27973,-4.94983 1.17239,-0.43234 7.43839,-0.96835 9.55215,-0.81711 2.04868,0.14658 4.08459,0.92758 5.19837,1.99417 0.88289,0.84548 0.92867,1.18737 0.13229,0.98793 -0.48591,-0.12168 -0.93569,0.21807 -2.4474,1.84865 -1.89968,1.88423 -3.37739,3.43304 -4.83873,5.16952 -8.2146,9.30855 -13.40689,17.69812 -15.27609,24.68272 -0.28997,1.51302 -0.76806,3.21047 -0.96228,4.55374 -0.29017,0.65931 -0.18858,0.7947 -0.98606,0.80234 -0.72896,0.007 -1.12534,0.25421 -2.1211,1.32292 -3.49558,3.75169 -11.96415,10.47998 -18.10576,14.38506 -6.34632,4.03524 -12.09308,6.09979 -14.85998,5.33849 z m 2.9676,-13.41345 c 2.42959,-1.39816 4.3504,-5.49175 3.51885,-7.49929 -1.00398,-2.42381 -4.6289,0.25841 -7.06479,5.22751 -0.66309,1.35267 -1.15705,2.50797 -1.0977,2.56733 0.7976,0.7976 2.98612,0.65831 4.64364,-0.29555 z m 32.06653,-12.64715 c 0.70923,-4.07273 3.13245,-9.63822 6.28775,-14.44133 1.00377,-1.52797 2.15126,-3.34067 2.54997,-4.02823 1.90989,-3.29347 6.91306,-9.06155 9.77036,-11.26408 0.76512,-0.58979 2.07373,-1.48304 2.90803,-1.98501 l 1.5169,-0.91266 -1.12003,-0.28493 c -2.08959,-0.53158 -3.54308,-0.59563 -7.09771,-0.31273 -1.95102,0.15528 -3.74635,0.34343 -3.98963,0.41811 -0.59779,0.18352 -3.04709,3.25179 -4.99272,6.25443 -3.1781,4.90469 -5.45977,10.45338 -6.61381,16.08385 -0.47718,2.32809 -0.54719,3.35674 -0.43217,6.35 0.11373,2.95992 0.52874,5.82083 0.84437,5.82083 0.0401,0 0.20603,-0.76421 0.36869,-1.69825 z m -79.296941,24.82709 c -1.448308,-0.72172 -3.23148,-2.53055 -4.020986,-4.07884 -0.802556,-1.57388 -1.590159,-4.48867 -1.590159,-5.88491 v -1.33125 l -1.256771,1.17041 c -3.937466,3.66689 -9.902016,6.57492 -13.485593,6.57492 -1.357059,0 -3.612405,-0.68528 -4.70421,-1.70163 -1.072105,-0.99801 -2.425946,-3.50792 -2.775175,-5.76372 -0.788712,-5.09462 1.527961,-12.03879 5.276622,-15.81653 1.693428,-1.5937 1.713504,-1.53882 2.827748,-2.25083 0.371811,-0.24362 1.337715,-0.6706 2.146454,-0.94885 4.203805,-1.44632 7.583551,0.33486 7.896762,4.16173 l 0.126868,1.55007 -0.548974,-1.08137 c -0.301937,-0.59476 -0.968221,-1.48773 -1.480632,-1.98438 -0.818266,-0.79309 -1.099608,-0.903 -2.311588,-0.903 -1.993217,0 -4.486034,1.29029 -6.320097,3.2713 -3.304767,3.56954 -5.180692,10.20435 -4.097195,14.49103 0.322893,1.27747 1.298782,2.7593 2.105772,3.19749 5.593909,1.55291 11.040071,-1.41666 15.459083,-4.88711 0.927753,-0.73479 1.079458,-1.02197 1.368491,-2.59062 0.17879,-0.97032 0.553506,-2.36541 0.832705,-3.1002 0.451405,-1.26116 0.736661,-1.6756 1.114878,-2.40134 0.225645,-0.47318 1.014233,-1.52117 1.752418,-2.32886 3.077493,-3.36727 7.430066,-3.92087 10.91682,-1.38851 1.42279,1.09583 1.53246,1.27021 2.12709,2.14219 1.2969,1.885 1.81397,3.70713 1.81397,6.39243 0,2.7657 -0.18122,4.46894 -1.87296,8.33448 -0.59163,1.51795 -1.58702,2.75401 -2.07671,3.39341 -0.84633,1.23395 -3.018707,3.4226 -4.041621,3.94445 -1.441275,0.73528 -3.486422,0.66349 -5.182976,-0.18194 z m 2.798258,-2.64465 c 2.978089,-1.48405 6.304033,-6.1945 7.364083,-10.42956 1.25609,-5.01832 -1.49987,-9.79005 -5.654338,-9.79005 -2.531139,0 -5.198118,2.3773 -6.530126,5.82084 l -0.460552,1.19062 0.684723,-0.64143 c 0.930849,-0.872 0.863132,-0.47559 -0.129828,0.76002 -1.644981,2.04696 -1.587847,6.76047 0.125857,10.38294 0.683358,1.4445 2.36442,3.3891 2.9298,3.3891 0.165457,0 0.917128,-0.30712 1.670381,-0.68248 z m 10.262623,0.2667 c -0.22868,-0.22867 -0.41578,-0.77438 -0.41578,-1.21269 0,-1.80704 2.08124,-8.74261 3.63996,-12.12987 1.03458,-2.24825 2.20428,-5.54892 2.6957,-7.60677 0.2872,-1.20268 0.41781,-1.38906 0.97339,-1.38906 0.50298,0 0.6764,0.1736 0.80231,0.80313 0.14415,0.72077 0.20457,0.76336 0.58918,0.41529 2.01029,-1.81929 3.96353,-0.30352 3.63682,2.82228 l -0.16306,1.56004 2.23122,-2.08755 c 3.58833,-3.35727 6.23489,-4.32809 7.72812,-2.83485 0.62052,0.62051 0.66925,0.82912 0.57178,2.44739 -0.17425,2.89269 -2.30245,7.24998 -6.84349,14.0114 -2.23671,3.33036 -2.94646,3.95562 -3.11763,2.74646 -0.14425,-1.019 0.66334,-3.07296 3.24061,-8.24192 2.65559,-5.32606 3.75265,-7.86731 3.50376,-8.1162 -0.46829,-0.46828 -4.65203,3.64455 -5.43593,4.42844 -0.94675,1.53584 -2.25898,3.07068 -3.24909,4.48292 -0.9061,1.30754 -1.86213,2.44548 -2.12451,2.52876 -0.7141,0.22665 -1.40955,-0.0808 -1.78974,-0.79118 -0.29564,-0.5524 -0.2348,-0.90667 0.47484,-2.76501 0.44766,-1.1723 1.11409,-3.2367 1.48096,-4.58756 0.61622,-2.26896 0.62741,-2.40572 0.14693,-1.79467 -1.43231,1.82154 -2.9449,5.41651 -4.50284,10.70186 -1.89264,6.42085 -1.9907,6.66699 -2.7356,6.8669 -0.8075,0.2167 -0.87717,0.20329 -1.33791,-0.25745 z m -46.844839,-3.08995 c 0.100663,-3.68198 0.785138,-7.59805 2.126221,-12.16471 0.501147,-1.70651 0.911174,-3.16848 0.911174,-3.24884 0,-0.0803 -1.513874,1.41644 -3.364163,3.3262 -6.625884,6.83886 -12.198668,9.98874 -15.905981,8.99046 -2.519177,-0.67834 -4.013189,-3.04393 -4.013189,-6.3544 0,-5.83097 5.266264,-13.57912 11.431413,-16.81881 3.177101,-1.66952 5.416116,-2.08419 7.208914,-1.33511 0.492935,0.20596 1.024893,0.61485 1.182127,0.90864 0.476874,0.89105 0.322529,2.50819 -0.372512,3.90295 -0.879928,1.76578 -4.468974,6.00264 -7.731223,9.12668 -2.558336,2.44995 -7.118562,5.79558 -7.899599,5.79558 -0.5662,0 -0.460137,0.47262 0.269896,1.20265 1.678376,1.24225 4.12389,0.49556 6.014218,-0.74604 3.11033,-1.56385 6.27848,-3.84706 10.709791,-7.71827 2.714429,-2.37134 3.554026,-3.26311 3.805584,-4.04205 0.612746,-1.89736 3.48266,-8.95092 5.466299,-13.43486 4.597983,-10.39354 9.042332,-17.97409 12.2222,-20.84691 1.169496,-1.05657 1.869221,-1.21709 2.510415,-0.57589 0.364037,0.36403 0.303569,0.53975 -0.593699,1.72525 -4.054213,5.35654 -13.111747,23.89215 -17.512028,35.83713 -2.363885,6.417 -4.742598,15.52259 -4.75543,18.20354 -0.0061,1.28512 -0.372311,1.72495 -1.073896,1.28995 -0.589905,-0.81827 -0.671814,-1.75085 -0.636535,-3.02313 z M 44.188105,231.36455 c 3.401238,-2.56593 9.669614,-9.34472 11.335602,-12.25862 1.219714,-2.13335 0.783379,-2.47796 -1.933218,-1.52683 -4.409122,1.54371 -9.545719,7.00267 -11.13722,11.83616 -0.669404,2.03303 -0.918474,3.5085 -0.592256,3.5085 0.143158,0 1.19035,-0.70165 2.327092,-1.55921 z M 176.56221,243.5989 c -2.30642,-1.59965 -4.93681,-3.70891 -6.27298,-6.203 -1.05396,-2.05836 -1.11541,-3.19322 -0.22134,-4.08729 0.79317,-0.79318 1.55399,-0.81985 2.89435,-0.10145 l 1.02241,0.54798 0.82576,-0.76818 c 1.49422,-1.39004 2.34202,-1.91528 3.09149,-1.91528 2.24849,0 2.07008,2.53526 -0.57387,8.15499 l -1.30161,2.76659 0.69148,0.90659 c 0.79737,1.04539 0.76629,1.18494 -0.15569,0.69905 z m -0.2612,-5.38347 c 0.95946,-2.17865 1.83549,-4.72183 1.84555,-5.35781 0.008,-0.48167 -0.60954,-0.0835 -2.35836,1.52135 -1.03071,0.94589 -1.97184,1.71979 -2.09139,1.71979 -0.11955,0 -0.497,-0.29765 -0.83877,-0.66146 -0.55813,-0.5941 -1.32292,-0.89242 -1.32292,-0.51602 0,0.46396 3.42769,6.0413 3.60361,5.86359 0.0304,-0.0307 0.55346,-1.18699 1.16228,-2.56944 z m -151.639795,5.35172 c -1.129105,-0.14408 -2.032072,-1.34191 -2.528721,-3.35447 -0.391899,-1.58808 -0.408879,-2.17103 -0.134987,-4.6342 0.172317,-1.54968 0.605092,-3.9376 0.961722,-5.30649 0.356631,-1.36889 0.609302,-2.52801 0.561492,-2.57582 -0.04781,-0.0478 -1.455067,1.67439 -3.127238,3.8271 -1.672171,2.15272 -3.515037,4.50935 -4.095257,5.23695 -0.811328,0.80649 -1.391437,1.44141 -1.537701,1.77959 -0.09335,0.24327 -0.827808,0.98407 -1.632129,1.64623 -1.067162,0.87856 -1.693383,1.20394 -2.31704,1.20394 -1.180185,0 -1.8506855,-0.78122 -1.6412331,-1.91224 1.3206931,-7.13164 1.5295461,-8.84033 1.6743211,-13.69818 0.300714,-10.09028 -0.826927,-21.20888 -2.815921,-27.76512 -0.3788235,-1.2487 -0.4399722,-1.79629 -0.2289789,-2.05052 0.7477851,-0.30817 1.376386,1.02657 1.6489509,1.6998 1.63184,4.28666 2.81772,10.07602 3.45583,16.87105 0.8152,8.68082 0.807961,15.05344 -0.02304,20.28149 -0.171873,1.08131 -0.154672,1.12659 0.288902,0.7605 0.259412,-0.21409 3.463279,-4.26221 7.119706,-8.99583 7.579145,-9.81197 8.237251,-10.59095 8.947575,-10.59095 1.941204,0 1.984162,1.32916 0.181854,5.62671 -3.52848,8.41356 -5.088161,14.90068 -4.294646,17.86256 0.154319,0.57601 0.193964,0.55837 0.89181,-0.39688 2.95359,-5.22606 6.106491,-10.41905 8.982082,-15.49077 7.180527,-12.73532 20.383976,-35.25567 21.550434,-36.7573 0.753523,-0.97005 0.950701,-0.91696 0.950701,0.25598 0,2.51085 -2.608818,7.73924 -13.276744,26.60822 -3.254903,5.50648 -6.236594,11.07102 -8.806843,15.61029 -7.363231,13.04535 -8.495354,14.54622 -10.754905,14.2579 z"
       id="path252"
       sodipodi:nodetypes="cssccccssccscssccsssssssccccsssccssscsssssscssssssssssscssssccsscsssssccsccsccsccssssssscssssscssssssscsssssssccsssssssccssssssssssssccssssssscccsssssssccsscssscscscsssssscsssssccsssssccsssssssccsscccc" /></g></svg>
