<?xml version="1.0" encoding="UTF-8" standalone="no"?>
<!-- Created with Inkscape (http://www.inkscape.org/) -->

<svg
   width="326.60654mm"
   height="188.03148mm"
   viewBox="0 0 326.60654 188.03148"
   version="1.1"
   id="svg5"
   xml:space="preserve"
   xmlns:xlink="http://www.w3.org/1999/xlink"
   xmlns="http://www.w3.org/2000/svg"
   xmlns:svg="http://www.w3.org/2000/svg"><defs
     id="defs2"><linearGradient
       id="linearGradient4116"><stop
         style="stop-color:#60d54c;stop-opacity:1;"
         offset="0"
         id="stop4112" /><stop
         style="stop-color:#4862cc;stop-opacity:1;"
         offset="1"
         id="stop4114" /></linearGradient><linearGradient
       xlink:href="#linearGradient4116"
       id="linearGradient4118"
       x1="-189.28679"
       y1="-107.27043"
       x2="-117.15355"
       y2="-25.257246"
       gradientUnits="userSpaceOnUse"
       gradientTransform="translate(336.15807,147.93831)" /><filter
       style="color-interpolation-filters:sRGB"
       id="filter5242"
       x="-1.1678635"
       y="-0.35603881"
       width="3.335727"
       height="1.7120776"><feGaussianBlur
         stdDeviation="2.5 2.5"
         result="blur"
         id="feGaussianBlur5240" /></filter><filter
       style="color-interpolation-filters:sRGB"
       id="filter6706"
       x="-0.039655451"
       y="-0.073156692"
       width="1.0793109"
       height="1.1463134"><feGaussianBlur
         stdDeviation="5 5"
         result="blur"
         id="feGaussianBlur6704" /></filter><filter
       style="color-interpolation-filters:sRGB"
       id="filter7436"
       x="-0.15161811"
       y="-0.14631794"
       width="1.3032362"
       height="1.2926359"><feGaussianBlur
         stdDeviation="5 5"
         result="blur"
         id="feGaussianBlur7434" /></filter></defs><g
     id="layer1"
     transform="translate(50.297097,3.6010188)"><path
       style="fill:url(#linearGradient4118);fill-opacity:1;stroke-width:0.174324;filter:url(#filter7436)"
       d="m 188.75938,122.64141 c -2.78317,-0.29051 -6.80485,-1.31908 -8.48485,-2.17007 -0.36577,-0.18527 -0.66501,-0.25014 -0.69798,-0.15128 -0.0878,0.26351 -2.39611,-0.92264 -3.26492,-1.67773 -0.91729,-0.79722 -2.68464,-2.98551 -3.15357,-3.90469 -0.2672,-0.52377 -0.4648,-0.68143 -0.97363,-0.77689 l -0.63839,-0.11976 0.45704,-0.47705 c 0.25138,-0.26237 0.45704,-0.5792 0.45704,-0.70406 0,-0.13536 0.11129,-0.18431 0.27566,-0.12124 0.15159,0.0582 0.44576,-0.0168 0.65371,-0.16654 0.36622,-0.26378 0.35895,-0.26946 -0.23207,-0.18137 -1.8198,0.27124 -3.02136,0.2783 -4.69802,0.0276 -0.99734,-0.14912 -2.03488,-0.27114 -2.30563,-0.27114 -0.27075,0 -0.49227,-0.0641 -0.49227,-0.14248 0,-0.0784 -0.45106,-0.28467 -1.00236,-0.45845 -2.25887,-0.71201 -5.51785,-2.35266 -10.76448,-5.41909 -3.02486,-1.7679 -5.47536,-3.86416 -7.61113,-6.510886 -6.68388,-8.28296 -8.03335,-16.65162 -4.6055,-28.56086 1.71487,-5.95794 4.40109,-11.3308 7.79523,-15.59164 1.5717,-1.97306 4.38341,-4.64317 6.44008,-6.11574 5.60367,-4.012243 16.31256,-7.462513 25.87309,-8.335973 9.30216,-0.84985 18.56847,2.08227 25.68601,8.127793 2.6919,2.28645 2.42517,2.11739 2.71819,1.72279 0.19823,-0.26696 0.31851,-0.29952 0.56689,-0.15348 0.39805,0.23403 1.09973,1.58864 1.09973,2.12303 0,0.23769 0.40358,0.87986 0.97998,1.55931 1.19483,1.40846 2.43867,3.30495 2.75428,4.19952 0.12872,0.36483 0.58979,1.32688 1.0246,2.13789 0.43482,0.81101 1.02844,2.15596 1.31918,2.98878 0.94799,2.71557 1.06923,3.81652 1.06923,9.7099 0,5.62904 -0.10505,6.99939 -0.79666,10.39201 -0.23455,1.15054 -0.54192,2.86011 -0.68305,3.79906 -0.4118,2.73981 -1.31796,5.15028 -3.06916,8.16433 l -0.67127,1.15532 0.78301,1.37237 c 1.6449,2.883006 2.52063,5.841186 2.5175,8.503936 -0.003,2.73072 -0.64861,4.56421 -2.44147,6.93583 -1.0687,1.41369 -4.94121,4.67238 -5.55251,4.67238 -0.10555,0 -0.57605,0.23636 -1.04552,0.52523 -2.1443,1.3194 -5.91637,2.8129 -8.86805,3.51118 -1.27656,0.302 -2.20037,0.36905 -5.62406,0.40815 -2.25314,0.0257 -4.41039,0.0141 -4.7939,-0.026 z m 8.36753,-2.41561 c 4.70224,-1.06527 9.69194,-3.1697 13.51008,-5.69791 0.99947,-0.66181 1.21029,-0.90449 1.78769,-2.05772 1.5762,-3.1482 1.7663,-6.34426 0.58543,-9.84284 -0.75366,-2.23286 -1.99446,-4.674836 -2.31321,-4.552526 -0.1318,0.0506 -0.17903,-0.0146 -0.12072,-0.16648 0.18777,-0.48929 -3.60762,-5.13672 -4.19495,-5.13672 -0.26726,0 -2.17577,-2.27683 -2.67341,-3.18934 -0.46682,-0.85599 -0.71007,-1.01345 -1.58438,-1.02551 -1.69444,-0.0234 -4.01969,2.21241 -4.03391,3.87873 -0.0117,1.37074 1.33892,3.36888 2.89269,4.27944 0.42034,0.24634 0.76427,0.5136 0.76427,0.59391 0,0.0803 0.15689,0.19581 0.34864,0.25667 0.47985,0.15229 0.43656,0.37745 -0.10742,0.55877 -0.45522,0.15175 -0.45432,0.15338 0.49906,0.8889 1.49451,1.152996 2.89096,2.718786 3.40705,3.820166 0.41485,0.88533 0.47221,1.21967 0.472,2.75104 0,1.64579 -0.0359,1.81825 -0.63812,3.08504 -1.83625,3.86264 -5.84357,5.73538 -10.60551,4.95626 -3.84776,-0.62955 -10.50417,-3.08076 -14.47252,-5.32948 -0.68629,-0.3889 -1.27239,-0.7071 -1.30242,-0.7071 -0.03,0 0.29079,0.60606 0.71291,1.34679 0.74053,1.29947 0.85687,1.65172 0.79305,2.40117 -0.0599,0.70394 -0.15285,0.78272 -0.69858,0.59247 -0.45581,-0.15889 -0.60158,-0.11288 -1.27795,0.40341 -0.43018,0.32836 -1.44567,0.8079 -2.32618,1.09848 -0.85946,0.28364 -1.58978,0.5308 -1.6229,0.54925 -0.0331,0.0185 0.62291,0.71511 1.45782,1.54814 1.71789,1.71402 2.78935,2.30627 5.7513,3.17898 2.20898,0.65086 3.32777,0.856 7.84292,1.43814 4.64864,0.59932 4.84466,0.60152 7.14727,0.0799 z m 3.23881,-10.52188 c 1.33035,-0.51206 2.30025,-1.39324 2.93777,-2.66902 0.60531,-1.21134 0.70092,-2.37176 0.27866,-3.38235 -0.33992,-0.81354 -1.92598,-2.36572 -3.75322,-3.673046 -1.47773,-1.05726 -1.48449,-1.0599 -2.49191,-0.97396 -0.9647,0.0823 -1.02556,0.11635 -1.35219,0.75661 -0.49426,0.968826 -1.47746,1.881486 -2.56165,2.377836 -1.32312,0.60575 -2.85422,0.51587 -3.91522,-0.22983 -0.99542,-0.69961 -1.69851,-1.87881 -1.86891,-3.134476 -0.1128,-0.83126 -0.23847,-1.10108 -0.70838,-1.52094 -0.53313,-0.47636 -0.64819,-0.50572 -1.72463,-0.44009 -0.87542,0.0534 -1.65756,0.27761 -3.24528,0.93044 -3.27441,1.34633 -3.93703,1.22239 -5.12557,-0.95866 l -0.51954,-0.95339 -0.18893,0.49691 c -0.5158,1.3567 -0.55063,2.02555 -0.17993,3.45567 0.38196,1.473516 0.30518,1.876476 -0.35749,1.876476 -0.4462,0 -1.33249,-1.14372 -1.66721,-2.151446 -0.6621,-1.99337 0.17085,-5.37006 1.53399,-6.21864 1.10891,-0.69032 2.10883,-0.10789 3.22168,1.87654 0.33604,0.59923 0.65071,1.08952 0.69928,1.08952 0.0486,0 1.00276,-0.29368 2.12045,-0.65263 1.68943,-0.54255 2.28211,-0.65281 3.51393,-0.65371 1.3147,-0.001 1.57664,0.0547 2.32332,0.49358 0.88056,0.51759 1.75285,1.66929 1.95239,2.57776 0.14547,0.66233 1.09951,1.66385 1.73751,1.82397 0.60764,0.15251 1.86051,-0.15868 2.68138,-0.666 l 0.59842,-0.36985 -1.51494,-0.40215 c -0.83322,-0.22119 -1.68052,-0.49078 -1.88289,-0.59909 -0.30189,-0.16157 -0.39917,-0.14114 -0.54182,0.11376 -0.14425,0.25776 -0.25866,0.097 -0.6717,-0.94384 -0.27379,-0.68998 -0.6155,-1.92938 -0.75935,-2.75422 -0.4336,-2.48647 -0.27394,-8.36781 0.28435,-10.47412 0.15153,-0.57164 0.14671,-0.79917 -0.0212,-1.00149 -0.32453,-0.39101 0.20714,-1.09292 1.14059,-1.50583 3.16705,-1.40093 11.1895,-2.01867 13.67893,-1.05329 0.52937,0.20529 1.23355,0.59953 1.56482,0.87609 l 0.6023,0.50283 -0.57474,0.12624 c -0.40143,0.0882 -0.54567,0.20205 -0.47829,0.37763 0.0531,0.13827 0.22229,0.68421 0.37607,1.2132 0.15378,0.52899 0.33163,0.93681 0.39522,0.90626 0.0636,-0.0306 0.52745,-0.3211 1.03081,-0.64567 0.88466,-0.57044 0.91531,-0.6169 0.91823,-1.39212 0.0115,-3.03343 1.87782,-6.6935 4.31516,-8.46228 l 0.74752,-0.54247 0.0575,-1.47697 c 0.0933,-2.39443 1.16185,-4.60498 2.4515,-5.07132 0.58986,-0.2133 0.61529,-0.25552 0.50775,-0.84279 -0.35276,-1.92619 -1.53602,-5.77932 -2.06558,-6.72626 -0.59333,-1.06094 -2.11859,-3.04397 -2.3413,-3.04397 -0.0642,0 -0.215,0.37262 -0.335,0.82804 -0.37997,1.44209 -1.74454,4.03506 -2.54443,4.83494 -1.24362,1.24363 -2.43012,1.25854 -3.97015,0.0499 -2.27089,-1.78225 -4.20385,-3.72317 -6.81506,-6.84314 l -0.4353,-0.52013 -0.57759,1.30459 c -1.3463,3.0409 -2.78217,5.38928 -4.01652,6.56905 -0.69548,0.66473 -1.74846,1.13841 -2.18626,0.98348 -0.44688,-0.15814 -1.09927,-0.77641 -1.09927,-1.04176 0,-0.12334 -0.39656,-0.48228 -0.88127,-0.79765 -0.99746,-0.64902 -1.85294,-1.83088 -2.40506,-3.3227 -0.82941,-2.24106 -1.64113,-3.37835 -2.6956,-3.77675 -0.8413,-0.31787 -2.67163,-0.20697 -4.70869,0.28529 -1.87513,0.45313 -1.92181,0.47553 -1.25054,0.60008 0.38351,0.0712 0.97185,0.13756 1.30742,0.14755 l 0.61014,0.0182 -0.8291,0.43157 c -3.44568,1.79359 -7.16603,0.80635 -8.69946,-2.30851 -0.50722,-1.0303 -0.56642,-1.30843 -0.5645,-2.65223 0.002,-1.14891 0.1051,-1.79783 0.44086,-2.76508 0.24132,-0.695113 0.42929,-1.263843 0.41774,-1.263843 -0.0115,0 -0.92183,0.30263 -2.02282,0.67252 -5.98533,2.010803 -10.16965,4.448363 -13.46495,7.843923 l -1.36286,1.40433 0.12442,0.83587 c 0.18027,1.21114 0.70362,2.63232 1.21742,3.30594 0.24569,0.32213 0.8537,0.80026 1.35111,1.06253 0.84661,0.44638 1.03808,0.47586 2.99628,0.46133 1.66304,-0.0123 2.73513,-0.14458 5.22971,-0.64508 1.7258,-0.34626 3.72487,-0.708 4.44237,-0.80387 0.7175,-0.0959 1.33307,-0.25992 1.36795,-0.36456 0.0397,-0.11902 0.13866,-0.13034 0.26436,-0.0302 0.11344,0.0903 0.61856,0.10303 1.15974,0.0292 0.52733,-0.072 0.98619,-0.10673 1.01969,-0.0773 0.0335,0.0294 -0.342,0.25772 -0.83448,0.50727 -0.58829,0.29811 -0.85227,0.52634 -0.76968,0.66543 0.59682,1.00483 2.20551,3.1341 2.79394,3.69804 1.6578,1.58881 5.296,3.22697 8.87551,3.99635 l 0.5384,0.11572 0.79425,-1.88164 c 0.43684,-1.03491 0.90057,-2.18661 1.03052,-2.55935 l 0.23626,-0.6777 0.1207,0.6777 c 0.56421,3.16809 -0.40384,8.23471 -2.17755,11.39673 -0.98636,1.75843 -3.16662,3.96594 -4.55936,4.61637 -3.32815,1.55427 -6.76456,0.57735 -9.27137,-2.63572 l -0.72142,-0.92467 -0.22149,0.53475 c -0.70579,1.70391 -2.83276,4.22959 -4.54335,5.39497 -2.6239,1.78762 -5.23736,1.80863 -8.78653,0.0706 -3.52809,-1.72767 -7.40829,-4.97943 -9.6402,-8.07885 -0.3581,-0.4973 -0.57938,-0.67938 -0.63555,-0.52297 -0.0474,0.13196 -0.26049,1.18128 -0.47353,2.33182 -0.55387,2.99112 -0.54991,7.59212 0.009,10.19038 0.47584,2.21306 1.33881,4.58071 2.49306,6.83994 0.67675,1.32464 2.01457,3.59439 2.32268,3.94071 0.0255,0.0287 0.33809,-0.14572 0.69454,-0.38762 0.78887,-0.53533 1.58729,-0.70106 2.72714,-0.56606 1.69601,0.20087 3.55254,1.59675 5.43021,4.082876 0.98437,1.30337 1.03552,1.31117 3.49106,0.53275 l 1.75636,-0.55677 1.84093,0.37644 c 1.75509,0.3589 1.90595,0.36386 3.23552,0.10638 0.76702,-0.14854 2.06137,-0.31011 2.87633,-0.35905 1.32778,-0.0797 1.65386,-0.0323 3.13783,0.45624 0.91084,0.29988 2.15718,0.80414 2.76965,1.12059 l 1.11358,0.57536 -1.11358,0.24683 c -0.73207,0.16227 -1.88998,0.22973 -3.37978,0.19691 -2.41747,-0.0533 -4.15494,0.076 -4.0172,0.29884 0.0462,0.0748 0.53759,0.18409 1.09187,0.24275 1.27377,0.13481 3.26921,0.81174 4.682,1.58831 l 1.09299,0.60078 -0.26551,-0.64309 c -0.14603,-0.35369 -0.39498,-0.79041 -0.55321,-0.97047 -0.27589,-0.31394 -0.26264,-0.32387 0.32243,-0.24161 3.05566,0.42959 7.80519,1.66002 15.2668,3.95506 1.54148,0.47412 3.34573,0.98293 4.00944,1.13068 1.60797,0.35794 3.70386,0.26392 4.96856,-0.22288 z m -30.27091,-1.16222 c 0.47282,-0.14041 1.10039,-0.2565 1.39459,-0.25797 1.18066,-0.006 0.99265,-0.28728 -0.63358,-0.94825 -2.03831,-0.82845 -3.45108,-1.65448 -3.45108,-2.01779 0,-0.1541 0.25495,-0.40394 0.56655,-0.5552 l 0.56655,-0.27502 -1.04594,0.0877 c -0.72086,0.0604 -1.51813,-0.025 -2.56517,-0.27486 l -1.51921,-0.36254 -1.68364,0.51825 c -3.22331,0.9922 -4.01382,0.68984 -6.22572,-2.38127 -0.73962,-1.02692 -1.78241,-2.01407 -2.54321,-2.407486 -0.64955,-0.33589 -1.76032,-0.35154 -2.19871,-0.031 -0.31334,0.22912 -0.29541,0.28011 0.3833,1.089516 1.26002,1.5027 2.73408,2.78842 4.62781,4.03654 3.23016,2.12892 8.8222,4.79151 10.6063,5.05006 0.87791,0.12723 1.01097,0.0965 1.90271,-0.43929 0.52732,-0.31685 1.34563,-0.69097 1.81845,-0.83139 z m 44.10051,-14.035856 c 0.24811,-0.81991 0.45111,-1.5595 0.45111,-1.64354 0,-0.084 -0.39223,0.41658 -0.87162,1.11247 -0.47939,0.69589 -0.87161,1.31997 -0.87161,1.38684 0,0.27672 0.57399,0.91466 0.70217,0.78041 0.0764,-0.08 0.34185,-0.81627 0.58995,-1.63618 z m -18.62062,0.96881 c -0.49097,-0.74932 -0.84662,-2.48632 -0.71872,-3.51011 0.26216,-2.09832 1.85684,-4.1271 4.0585,-5.16333 1.31401,-0.61846 2.76724,-0.71885 3.68834,-0.25479 0.32717,0.16483 0.61321,0.27974 0.63567,0.25535 0.0224,-0.0244 -0.0634,-0.63268 -0.19073,-1.35176 -0.12734,-0.71909 -0.28148,-1.75626 -0.34251,-2.30482 l -0.11099,-0.99739 -0.72896,0.0866 c -0.40092,0.0477 -2.65086,0.20047 -4.99988,0.3396 -2.34901,0.13913 -4.64968,0.30553 -5.11261,0.36977 -0.75362,0.10458 -0.8299,0.15517 -0.72911,0.48347 0.34429,1.12136 0.44885,1.84577 0.63539,4.40277 0.19465,2.66793 0.0776,5.38501 -0.31247,7.25134 -0.0992,0.47474 -0.0911,0.47952 0.83532,0.49231 0.51454,0.007 1.28853,0.0757 1.71998,0.15251 0.43145,0.0768 1.04844,0.1494 1.37106,0.1614 0.58634,0.0218 0.58648,0.0216 0.30172,-0.41296 z m 16.82165,-1.61353 c 0.10001,-0.26366 0.68092,-1.65812 1.29092,-3.09879 1.39532,-3.29536 2.31017,-6.01906 2.62929,-7.82797 0.38448,-2.17948 0.77028,-6.40299 0.77162,-8.44758 0.002,-1.82172 -0.44747,-5.73074 -0.68795,-5.99378 -0.14898,-0.16293 -1.52786,2.69269 -1.68546,3.49051 -0.10611,0.53714 -0.085,0.56655 0.40582,0.56655 0.55451,0 1.20526,0.55179 1.01458,0.86029 -0.0629,0.10174 -0.54012,0.38642 -1.06057,0.63263 -2.08689,0.98725 -3.95339,3.5826 -4.5285,6.29681 -0.34455,1.62612 -0.33535,2.32104 0.0308,2.32104 0.26842,0 0.26842,0.0222 7e-5,0.31871 -0.25607,0.28296 -0.26794,0.53227 -0.1057,2.22262 0.1005,1.04716 0.24833,2.37459 0.3285,2.94986 0.0802,0.57527 0.12659,1.06764 0.10311,1.09415 -0.0883,0.0998 -1.49069,-1.88087 -2.06341,-2.91421 l -0.59598,-1.07528 -0.46762,0.55575 c -0.99018,1.17675 -1.39179,2.57244 -1.00528,3.49361 0.0652,0.15532 0.70683,0.75248 1.42592,1.32703 0.71908,0.57455 1.85654,1.63404 2.52769,2.35443 0.67115,0.72038 1.28103,1.31952 1.35533,1.3314 0.0743,0.0119 0.21688,-0.19411 0.31687,-0.45778 z M 161.8051,82.061484 c 1.20916,-0.61272 2.50051,-1.72473 4.45302,-3.83456 l 1.72973,-1.86909 -0.50946,-0.94285 c -0.5658,-1.04714 -0.49604,-1.42509 0.31659,-1.71484 0.34546,-0.12317 0.58763,-0.0666 1.11504,0.2604 0.37058,0.22977 0.7326,0.39863 0.80451,0.37526 0.0719,-0.0234 0.13074,0.0468 0.13074,0.156 0,0.30089 1.84818,2.49637 2.55584,3.03614 0.83655,0.63806 2.1651,1.12383 3.06796,1.12174 1.51004,-0.003 3.41549,-1.32688 4.78658,-3.32444 0.46633,-0.67939 2.48956,-4.53454 2.48956,-4.74369 0,-0.0387 -0.76484,-0.0357 -1.69965,0.007 -2.17742,0.0987 -3.85484,-0.24551 -5.75022,-1.17996 -2.71246,-1.33728 -4.82538,-4.08804 -5.05096,-6.57574 l -0.0953,-1.05077 -1.72042,0.76279 c -3.51801,1.55981 -6.62492,2.24404 -9.67285,2.13025 -2.37465,-0.0887 -3.6176,-0.58331 -4.91633,-1.95653 -0.79155,-0.83694 -1.58027,-2.40422 -1.61317,-3.20548 -0.007,-0.16419 -0.0721,-0.4516 -0.14533,-0.63868 -0.11277,-0.28824 -0.26642,-0.14188 -1.0066,0.95878 -1.30753,1.94429 -2.38949,3.88871 -3.27423,5.88419 -0.92402,2.08402 -2.18588,5.76654 -2.18588,6.37905 0,1.05514 3.53622,4.90845 6.57019,7.15932 1.7702,1.31329 4.60606,2.80757 5.98808,3.15525 1.22938,0.30927 2.59141,0.17832 3.63254,-0.34926 z m 30.29707,-22.53469 c 0.35006,-0.54721 1.09231,-1.95942 1.64947,-3.13824 1.08372,-2.29288 2.56897,-4.98014 2.80722,-5.07906 0.0798,-0.0331 0.36927,-0.24887 0.64324,-0.47939 0.69311,-0.58321 0.88359,-0.5279 0.88359,0.25657 0,0.64678 0.10261,0.76857 2.39695,2.84507 2.67594,2.42187 5.78104,5.02108 5.99833,5.02108 0.35188,0 1.29136,-1.83269 2.12689,-4.14897 l 0.44798,-1.24193 -1.69354,-1.3382 c -5.70594,-4.508723 -10.73111,-6.753703 -17.10853,-7.643193 -4.85443,-0.67708 -11.70461,-0.0601 -17.78172,1.60159 l -1.12117,0.30656 -0.009,2.440533 c -0.0106,2.78528 0.16603,3.3361 1.4392,4.48634 0.87528,0.79077 1.15972,0.94081 2.39196,1.26176 l 0.99785,0.25991 1.24118,-0.77359 c 2.00214,-1.24788 3.40187,-1.70952 5.24634,-1.73028 1.2742,-0.0144 1.72504,0.0544 2.40005,0.36614 1.27809,0.59018 2.37333,1.85007 3.52134,4.05067 0.92986,1.78246 2.33241,3.67157 2.72595,3.67157 0.0882,0 0.44674,-0.44772 0.79678,-0.99494 z"
       id="path3210-3" /><path
       style="fill:#a587ef;fill-opacity:1;stroke-width:0.174324;filter:url(#filter6706)"
       d="m 229.90874,171.6919 c -3.51068,-2.11998 -5.87514,-5.62256 -6.34271,-9.39569 -0.45934,-3.70682 1.20128,-6.76812 3.67143,-6.76812 1.01383,0 1.69385,0.26667 3.07934,1.20754 0.57506,0.39051 1.11919,0.71002 1.20918,0.71002 0.09,0 0.46354,-0.332 0.83014,-0.73779 2.63705,-2.91889 4.39651,-3.425 5.88034,-1.69151 1.25757,1.46922 1.22715,2.48983 -0.17898,6.00294 -1.68862,4.21892 -4.43758,8.38313 -6.18082,9.36288 -0.70085,0.3939 -0.70298,0.39828 -0.59326,1.22531 0.0606,0.4565 0.0486,0.82683 -0.0266,0.82294 -0.0752,-0.004 -0.68181,-0.33623 -1.34801,-0.73852 z m 2.14007,-3.74754 c 1.88991,-3.34624 3.38564,-6.89636 3.76228,-8.92979 l 0.11302,-0.61014 -0.83315,0.95592 c -2.07049,2.37569 -2.16224,2.44365 -3.2943,2.44085 -0.80342,-0.002 -1.28162,-0.12771 -2.20977,-0.5809 -0.65145,-0.31807 -1.21194,-0.53266 -1.24553,-0.47683 -0.18668,0.31032 0.39518,2.60368 1.42973,5.63538 0.64603,1.8931 1.18411,3.4424 1.19574,3.44289 0.0117,0 0.49853,-0.84434 1.08198,-1.87738 z M 99.196527,171.2608 c -2.30877,-3.02371 -3.4249,-5.10331 -4.65459,-8.6726 -1.73652,-5.04034 -2.50574,-8.88011 -4.01606,-20.04721 -0.725037,-5.36073 -1.195737,-7.79262 -1.765687,-9.12224 -0.41904,-0.97757 -0.41029,-1.89088 0.025,-2.60474 0.82322,-1.35022 9.374027,-6.06841 16.16416,-8.91913 6.32571,-2.65573 13.10594,-4.50548 18.87453,-5.14927 2.49068,-0.27797 7.50562,-0.36402 7.22571,-0.12399 -0.0911,0.0781 -0.75395,0.28333 -1.47303,0.45606 -1.61141,0.38708 -8.12956,2.53534 -11.40599,3.75922 -6.74331,2.51887 -19.157633,8.39108 -24.199613,11.44687 -1.11915,0.67829 -1.11882,0.67723 -0.83361,2.67414 0.089,0.62321 0.32618,3.25113 0.52703,5.83984 0.20086,2.58871 0.47932,5.80498 0.61881,7.14727 0.1395,1.34229 0.25378,2.49992 0.25397,2.57253 0,0.0726 1.00053,-0.36879 2.22298,-0.98082 4.615273,-2.31073 15.796633,-6.19501 22.357003,-7.76657 2.70484,-0.64796 6.83157,-1.2726 7.93263,-1.2007 0.82307,0.0537 0.81036,0.0614 -2.81205,1.68905 -4.74754,2.13327 -9.40815,3.96473 -13.83676,5.43738 -6.55457,2.1796 -10.00103,2.98231 -13.815153,3.2177 l -1.87397,0.11565 v 0.58184 c 0,0.98831 1.00523,6.60602 1.64723,9.20554 0.77677,3.1452 2.34289,8.17062 3.12198,10.0179 0.33139,0.78575 0.575153,1.42864 0.541693,1.42864 -0.0335,0 -0.405233,-0.45106 -0.826173,-1.00236 z m 82.276513,-2.58485 c -0.67675,-2.11771 -0.94613,-4.59012 -1.16093,-10.65508 -0.13273,-3.74763 -0.23602,-4.94445 -0.52206,-6.04999 -0.40724,-1.57383 -0.84774,-2.42918 -1.2954,-2.5154 -1.26055,-0.24276 -3.29667,1.77151 -4.63488,4.58515 -1.5351,3.22758 -2.31241,6.18888 -2.7028,10.29689 -0.29609,3.11563 -0.44897,3.64737 -1.15328,4.01159 -0.73796,0.38161 -1.31236,0.30761 -1.93574,-0.24937 -0.4642,-0.41479 -0.57896,-0.66616 -0.65645,-1.43817 -0.15194,-1.51339 0.13948,-4.94271 0.61209,-7.20286 0.71136,-3.40205 0.76951,-3.9421 1.0193,-9.46475 0.25167,-5.56439 0.35834,-6.14555 1.12803,-6.14555 0.78817,0 1.11796,1.00247 1.34327,4.08332 l 0.12652,1.72996 0.52906,-0.68401 c 0.95433,-1.23385 2.41996,-2.52813 3.50009,-3.09092 0.96111,-0.50076 1.20916,-0.55308 2.6301,-0.55475 1.39412,-0.002 1.6585,0.0508 2.37303,0.47088 3.56747,2.09722 4.67618,8.5355 3.01854,17.52852 -0.44229,2.3996 -1.28248,5.29749 -1.70237,5.87172 -0.22424,0.30667 -0.26198,0.26813 -0.51612,-0.52718 z m -53.29111,0.13919 -0.61013,-0.0798 0.69729,-0.3271 c 0.65035,-0.30507 0.66065,-0.32069 0.15299,-0.23184 -0.29937,0.0524 -1.07575,-0.028 -1.72528,-0.17864 -4.46795,-1.03618 -8.38537,-5.8593 -9.33962,-11.49891 -0.408,-2.4114 0.19802,-5.48677 1.4744,-7.48207 1.66631,-2.60485 5.2736,-4.63025 8.26818,-4.64236 1.94837,-0.008 4.60312,0.87587 6.58729,2.19288 1.92152,1.27544 4.25611,3.92774 5.33362,6.05944 2.37576,4.70008 1.05213,10.29593 -3.22739,13.64443 -0.68406,0.53524 -1.68255,1.19467 -2.21886,1.4654 -1.57196,0.79352 -3.94421,1.26801 -5.39249,1.07857 z m 4.62587,-3.74283 c 4.86683,-4.9567 4.97012,-9.57582 0.31728,-14.18872 -3.39483,-3.36567 -7.45942,-3.73199 -10.41316,-0.93847 -1.38547,1.31034 -1.90316,2.56494 -1.99372,4.83188 -0.061,1.52783 -0.007,1.99815 0.38291,3.35892 0.52826,1.84156 1.07361,2.9885 2.12869,4.47688 1.78303,2.51526 4.38071,4.05379 6.86566,4.06632 l 1.12908,0.006 1.58326,-1.61249 z m 19.03784,1.9462 c -3.35604,-0.79096 -6.61889,-4.9874 -8.25459,-10.61646 -0.64154,-2.20778 -0.89858,-3.94054 -1.10822,-7.47095 -0.21695,-3.65315 -0.12865,-4.12391 0.77349,-4.12391 0.99451,0 1.48972,1.31341 2.10328,5.57836 0.66168,4.59947 2.19782,8.64599 4.23718,11.16169 1.16516,1.4373 2.12321,2.04836 3.35474,2.13967 1.46559,0.10867 2.63396,-0.58233 4.06552,-2.4045 2.17915,-2.77368 3.99764,-7.6998 5.50277,-14.90631 0.74549,-3.56943 0.72198,-3.53059 1.259,-2.07914 0.66893,1.80795 0.88981,3.10202 0.87564,5.12981 -0.0376,5.37567 -2.55736,11.76733 -5.9717,15.14799 -2.14177,2.12063 -4.55235,2.98224 -6.83711,2.44375 z m 44.93262,-2.68017 c -3.83372,-0.70097 -6.4374,-2.35911 -7.69271,-4.89905 -1.61807,-3.27397 -0.66863,-7.22061 2.67401,-11.11528 1.6613,-1.93563 4.08768,-3.53467 6.4237,-4.23331 1.42206,-0.42529 4.02428,-0.42142 5.30646,0.008 0.52733,0.17657 1.32674,0.50526 1.77648,0.73043 l 0.8177,0.4094 0.086,-0.73857 c 0.0473,-0.40621 0.17273,-2.18982 0.27878,-3.96356 0.10604,-1.77375 0.34524,-4.75468 0.53158,-6.6243 0.3552,-3.56392 0.72904,-7.74605 1.04033,-11.63776 0.10168,-1.2713 0.2732,-2.50531 0.38115,-2.74225 0.36905,-0.80993 1.49431,-0.79309 1.8684,0.028 0.60869,1.33591 0.63749,5.3836 0.10026,14.09055 -0.44456,7.20494 -0.62,11.80372 -0.50828,13.32413 0.0951,1.2949 0.21259,1.70191 0.88363,3.06229 0.87545,1.77479 1.34949,3.72436 1.17337,4.82573 -0.26472,1.65548 -1.93811,2.53205 -3.19967,1.67609 -0.8165,-0.554 -1.30274,-1.48899 -1.75218,-3.36924 -0.52121,-2.18044 -0.56012,-2.2525 -1.59136,-2.94699 -1.31062,-0.88262 -2.92434,-1.38626 -4.06462,-1.26857 -2.24745,0.23195 -4.72206,2.30096 -6.01117,5.02587 -0.73341,1.55031 -0.72713,2.5688 0.0197,3.19722 1.24759,1.04977 3.31001,1.73919 6.0308,2.01594 1.4457,0.14706 3.60274,0.12567 9.45831,-0.0937 4.17202,-0.15633 7.97773,-0.25894 8.45712,-0.22801 0.81022,0.0523 0.42346,0.2057 -5.4912,2.17848 -10.00082,3.33569 -13.27481,3.96918 -16.99655,3.28867 z M 25.592499,159.81889 c -3.811551,-0.92689 -6.711459,-5.16067 -6.711459,-9.79848 0,-2.89213 0.898464,-5.62607 2.790241,-8.49047 3.088805,-4.67682 8.216952,-8.29125 13.944824,-9.82857 2.184641,-0.58635 5.741644,-0.743 7.653834,-0.33709 5.017312,1.06507 8.596838,5.41238 8.120324,9.86208 -0.410061,3.82914 -3.027146,8.04784 -7.420728,11.9621 -3.884662,3.4609 -9.254596,5.98347 -14.048599,6.59946 -2.462025,0.31634 -3.135158,0.32115 -4.328437,0.031 z m 4.805839,-3.87458 c 2.186384,-0.64908 5.792146,-2.91492 9.737873,-6.11921 l 0.597825,-0.48549 -0.663632,1.04594 c -0.364981,0.57527 -1.091353,1.6735 -1.614132,2.44053 l -0.950534,1.39459 1.160019,-1.13311 c 3.274041,-3.19812 6.762221,-8.58726 7.334403,-11.3315 0.39446,-1.89181 -0.05132,-3.11576 -1.551549,-4.26003 -3.627273,-2.76666 -11.613054,-0.62025 -16.689758,4.48583 -1.81436,1.82485 -3.225022,4.12704 -3.76023,6.13657 -0.357817,1.34346 -0.303236,3.56067 0.114635,4.65753 1.104724,2.89982 3.359983,4.03671 6.28508,3.16835 z m -32.848648,1.15773 c -1.623615,-0.52009 -2.959317,-2.24539 -3.777613,-4.87944 -1.810893,-5.82918 -2.944946,-17.37938 -2.961709,-30.16464 -0.0055,-4.22952 -0.0418,-4.92169 -0.243853,-4.65527 -0.390695,0.51515 -3.280093,6.77168 -4.769021,10.32656 -2.148311,5.12919 -4.017941,10.24491 -7.00948,19.17948 -1.510599,4.51158 -2.871218,8.44398 -3.023597,8.73864 -0.152382,0.29467 -0.40897,0.58639 -0.570199,0.64825 -0.408013,0.15658 -0.940017,-0.37437 -0.940017,-0.93815 0,-1.40957 1.316879,-7.15635 2.876982,-12.555 2.941183,-10.17778 6.902976,-20.51572 10.849784,-28.31153 1.868395,-3.69048 2.76135,-4.57964 4.437445,-4.41859 0.923251,0.0887 1.536743,0.52641 2.017022,1.43904 0.635305,1.20724 0.753793,2.40128 1.003302,10.11076 0.330378,10.20803 0.792789,16.35511 1.671937,22.22626 0.567616,3.79069 1.530945,7.84456 1.864112,7.84456 0.06983,0 0.531164,-0.60795 1.025215,-1.351 3.1936782,-4.8034 7.4208682,-14.08749 14.664013,-32.20629 5.145457,-12.87138 6.30891,-16.26509 6.30891,-18.402539 0,-0.65738 -0.02355,-0.68594 -0.566551,-0.68704 l -0.566552,-10e-4 0.522971,-0.34635 c 1.583154,-1.04848 2.96758,0.27953 3.392459,3.254229 0.557103,3.90046 -1.736803,12.11062 -7.054161,25.24768 -3.362005,8.30615 -5.626172,13.35033 -8.6490648,19.26866 -4.134799,8.09531 -6.191207,10.54308 -9.0127562,10.72805 -0.544448,0.0357 -1.214757,-0.007 -1.489578,-0.0952 z m 65.623314,-2.60054 c -0.726703,-1.02058 -0.930853,-1.7956 -1.019183,-3.86928 -0.264832,-6.21776 2.14547,-14.45744 7.613309,-26.02615 l 1.06067,-2.24416 -0.8272,0.10788 c -6.148362,0.80181 -8.441205,0.80056 -11.548105,-0.006 l -1.133103,-0.29428 1.307427,-0.21874 c 0.719085,-0.1203 2.523334,-0.49909 4.009443,-0.84172 1.486108,-0.34263 4.310148,-0.95857 6.275648,-1.36875 3.42997,-0.71579 3.5866,-0.76654 3.89624,-1.2622 0.17744,-0.28403 1.06792,-1.81078 1.97887,-3.39277 5.82364,-10.11367 12.27269,-17.700599 17.558567,-20.656629 2.64507,-1.47921 5.41762,-2.26382 6.46281,-1.82893 l 0.52297,0.21761 -0.61013,0.16711 c -1.45184,0.39767 -5.15617,3.4577 -7.81126,6.45262 -2.119757,2.391069 -4.903577,6.072469 -7.087417,9.372569 -2.20987,3.33944 -5.37168,8.55114 -5.25722,8.6656 0.24282,0.24281 15.441167,-3.88015 19.589347,-5.31414 1.07863,-0.37287 1.961143,-0.65431 1.961143,-0.62542 0,0.1277 -2.688233,1.83716 -4.339893,2.75977 -4.97789,2.78063 -9.765847,4.60487 -16.491777,6.2835 l -2.9635,0.73962 -1.43093,2.76677 c -4.21353,8.14707 -7.53211,16.2854 -8.911912,21.85523 -0.29689,1.19848 -0.708625,3.35573 -0.914972,4.7939 -0.565785,3.9435 -1.061177,4.93106 -1.889842,3.76731 z m 169.523066,-5.32304 c -1.55415,-1.61587 -2.11552,-2.63105 -2.3754,-4.29566 -0.82783,-5.30247 2.13757,-14.4283 7.30356,-22.47619 5.20438,-8.10773 13.0461,-15.59036 18.46844,-17.62274 1.35447,-0.50768 1.72869,-0.57268 3.35492,-0.58275 2.12487,-0.0131 2.84587,0.26013 3.88294,1.47171 0.81693,0.9544 1.06904,1.93675 0.95175,3.70869 -0.23422,3.53894 -3.16468,9.33364 -9.84886,19.47506 -6.70182,10.16821 -12.22082,16.97816 -16.34662,20.17027 -1.26076,0.97543 -2.32549,1.44586 -3.27252,1.44586 -0.85808,0 -0.89517,-0.0227 -2.11821,-1.29425 z m 2.21196,-3.71755 c 6.46378,-7.37236 18.1273,-24.05298 22.03244,-31.50977 1.14494,-2.18623 2.06853,-4.4182 1.8986,-4.58815 -0.16878,-0.16878 -1.98606,0.52817 -3.14867,1.20757 -5.33061,3.11502 -12.17919,10.47258 -16.5343,17.76305 -3.40114,5.69353 -5.7038,11.55872 -6.15951,15.68913 -0.14675,1.3301 -0.11532,3.48647 0.0508,3.48647 0.0356,0 0.87287,-0.92174 1.86061,-2.0483 z m -90.42372,-8.62902 c 0.0626,-0.21573 0.26943,-0.82157 0.45967,-1.34634 1.08367,-2.98923 1.74174,-7.5666 1.37934,-9.59444 -0.11975,-0.67006 -0.26944,-1.21815 -0.33263,-1.21798 -0.2765,0 -1.0798,1.60512 -1.50262,3.00103 -0.52766,1.742 -1.04078,2.32665 -1.89251,2.1563 -0.27311,-0.0546 -1.13725,-0.55942 -1.92031,-1.12179 -0.78308,-0.56237 -1.6077,-1.11888 -1.83249,-1.2367 -0.38198,-0.2002 -0.40117,-0.18756 -0.29328,0.19297 0.25995,0.9168 1.21775,2.59451 2.37221,4.15514 1.14314,1.54537 2.94936,4.36165 2.94936,4.59871 0,0.15449 -2.16184,-0.68587 -3.19516,-1.24203 -1.35367,-0.72861 -3.39261,-2.86066 -4.19211,-4.38353 -1.52739,-2.90939 -1.55839,-5.56054 -0.0755,-6.4646 0.31737,-0.1935 0.80267,-0.3521 1.07845,-0.35246 0.65115,0 2.3404,0.86004 3.76884,1.92071 l 1.13241,0.84085 0.31212,-0.79462 c 0.74569,-1.89835 2.25786,-3.5365 3.26456,-3.5365 1.06791,0 1.67117,0.92956 1.9269,2.96906 0.42615,3.39855 -0.89503,9.69231 -2.36084,11.24654 -0.66709,0.7073 -1.22304,0.81871 -1.04636,0.20968 z M 34.193276,122.40086 c -1.022251,-0.0756 -2.316604,-0.2348 -2.876339,-0.35372 l -1.017702,-0.21625 2.091884,-0.30657 C 44.219218,119.7909 56.532112,113.63603 64.950564,105.24875 71.58701,98.636871 76.46392,90.167331 79.31026,80.310861 c 0.64043,-2.21773 1.34595,-5.35013 1.53206,-6.80202 l 0.11172,-0.87162 -0.96582,1.7949 c -1.56073,2.9005 -2.63366,4.35707 -4.78175,6.49159 -1.52517,1.51552 -2.32817,2.16914 -3.25997,2.65348 -3.51511,1.82716 -6.548499,1.53185 -9.94122,-0.96781 l -1.066808,-0.78599 -1.896693,1.30359 c -9.106577,6.25885 -14.486238,8.3637 -18.622658,7.2863 -2.303634,-0.60002 -4.899155,-2.45413 -6.135877,-4.38315 -0.836282,-1.30442 -1.439878,-3.25856 -1.569191,-5.0802 l -0.110364,-1.5548 -1.317712,1.58927 c -1.925579,2.32242 -5.150321,5.4594 -6.72387,6.54089 -2.529348,1.7384 -4.919987,2.43886 -7.130672,2.08927 -3.849535,-0.60876 -7.00406,-4.27108 -8.3458988,-9.68939 -0.506898,-2.04684 -0.540978,-5.73064 -0.07304,-7.8934 1.8798358,-8.68848 8.6075408,-16.82348 16.6988218,-20.19189 1.842287,-0.76694 3.283995,-1.07467 5.048952,-1.07769 2.645622,-0.005 4.320471,0.72755 6.538425,2.85797 l 1.19375,1.14664 -1.144643,-0.50905 c -1.308926,-0.58211 -3.572745,-1.05761 -5.035215,-1.05761 -2.280292,0 -5.415572,1.28109 -8.302859,3.39259 -3.17044,2.31856 -6.784604,6.5684 -8.525068,10.0245 -1.415734,2.81128 -2.356297,6.40784 -2.356297,9.0101 0,4.64384 2.419507,9.18136 5.029445,9.43214 2.942756,0.28277 6.75781,-3.09321 13.348358,-11.81211 3.39999,-4.49798 4.118168,-5.58676 5.470745,-8.29374 2.225973,-4.45499 4.922079,-8.02447 6.353014,-8.41098 1.873665,-0.50609 3.505822,1.22063 2.939741,3.11006 -0.109789,0.36644 -1.406983,2.47921 -2.88265,4.69505 -2.850208,4.27982 -3.429346,5.44327 -4.430486,8.90063 -1.249099,4.31365 -1.420842,7.55966 -0.499594,9.44262 0.577586,1.18058 1.562601,2.11261 2.89093,2.73544 0.883698,0.41437 1.176126,0.45883 2.98442,0.45377 1.256629,-0.004 2.557658,-0.12377 3.486471,-0.32227 2.377652,-0.50813 12.551299,-3.91942 12.551299,-4.20852 0,-0.0356 -0.395837,-0.5877 -0.879654,-1.22689 -3.615506,-4.77675 -4.624143,-11.28637 -2.678535,-17.28701 1.474761,-4.54848 4.159762,-7.90477 7.774676,-9.71852 2.142457,-1.07495 3.673917,-1.38074 6.309637,-1.25986 2.90049,0.13301 3.94033,0.49483 6.2961,2.19076 2.2341,1.60834 2.257,1.63736 0.90732,1.14943 -1.54648,-0.55908 -4.60272,-0.84116 -6.506,-0.60048 -3.04793,0.38542 -5.0773,1.33547 -7.054055,3.30235 -1.877657,1.86825 -2.970753,3.88508 -3.860291,7.12239 -0.479913,1.74657 -0.532838,5.50377 -0.09989,7.09266 1.007399,3.69711 2.879216,6.39849 5.256885,7.58662 2.110131,1.05445 3.689591,0.57823 6.243291,-1.88239 3.55561,-3.426 5.74867,-7.91808 7.46566,-15.29203 0.63588,-2.73092 0.9589,-3.40966 1.81636,-3.81656 0.9865,-0.46812 1.88249,-0.28912 2.76444,0.5523 1.26071,1.20274 2.10736,7.21485 1.70761,12.12585 -0.75019,9.21636 -4.16468,19.4672 -9.16071,27.50183 -6.17031,9.923159 -14.814576,17.139259 -25.037643,20.901049 -5.452215,2.00625 -12.118279,3.00373 -17.441982,2.60994 z m -62.120998,-11.70743 0.241618,-0.81795 -1.678243,-1.18677 c -2.056788,-1.45446 -4.834567,-4.19561 -6.21518,-6.13324 -0.566712,-0.79535 -1.410002,-2.18712 -1.873979,-3.092809 -0.677723,-1.32294 -0.843592,-1.81871 -0.843592,-2.52147 0,-1.20698 0.380601,-1.86001 1.328405,-2.27927 0.967022,-0.42776 1.386443,-0.34662 2.958688,0.5724 0.662256,0.38711 1.268966,0.71698 1.348245,0.73305 0.07928,0.0161 0.281826,-0.40224 0.450098,-0.92957 0.687728,-2.15516 2.02013,-3.87518 3.71838,-4.80009 2.579716,-1.40499 4.663048,0.0439 4.990374,3.47072 0.246737,2.58311 -0.479313,7.190129 -1.89742,12.039739 -0.381765,1.30555 -0.694118,2.47833 -0.694118,2.60619 0,0.12785 0.239953,0.76167 0.533228,1.40847 0.293277,0.64681 0.506781,1.20246 0.474455,1.23479 -0.03233,0.0323 -0.515742,-0.14797 -1.074259,-0.40067 -0.882191,-0.39913 -1.035083,-0.42442 -1.164803,-0.19262 -0.08213,0.14675 -0.305512,0.45587 -0.496417,0.68694 l -0.347098,0.42012 z m 1.457586,-7.37525 c 0.725203,-4.305089 0.989157,-7.283809 0.759648,-8.572629 -0.223244,-1.25366 -0.491371,-1.97395 -0.734793,-1.97395 -0.101828,0 -0.530437,0.35528 -0.952462,0.78951 -0.854897,0.87963 -1.277172,1.85198 -1.833642,4.22224 -0.39246,1.67166 -0.874055,2.373879 -1.799027,2.623189 -0.450626,0.12146 -0.438525,0.14457 1.478789,2.82447 1.063222,1.48611 2.015043,2.88065 2.115157,3.09898 0.100116,0.21832 0.239566,0.33599 0.30989,0.26148 0.07033,-0.0745 0.365724,-1.54749 0.65644,-3.27329 z m 23.692377,-7.056259 c -1.016133,-0.7993 -3.05096,-4.43897 -4.569165,-8.17287 -2.15939,-5.31081 -4.427847,-13.78317 -6.097543,-22.77342 -1.29203,-6.95677 -2.094919,-12.27445 -3.763789,-24.92827 -1.596042,-12.10162 -2.542529,-16.02399 -5.07399,-21.02735 -0.874945,-1.72931 -1.042559,-2.58866 -0.652592,-3.34583 0.644244,-1.25088 1.817918,-1.72413 3.080291,-1.24202 1.144553,0.43711 3.021547,0.24024 6.572885,-0.68941 6.28864,-1.6462 7.04542,-1.83513 9.418215,-2.35123 6.5726972,-1.42963 11.8815822,-2.03704 16.458187,-1.88306 4.443892,0.14952 6.526919,0.68279 9.16264,2.3457 2.386821,1.50587 4.349251,3.83546 5.173366,6.14126 0.356683,0.99793 0.404361,1.44505 0.399724,3.74796 -0.0047,2.2902 -0.06643,2.85294 -0.497833,4.53241 -1.721603,6.7025 -6.719129,17.20189 -11.876806,24.95219 -5.4807508,8.23577 -10.1598398,12.09158 -14.6733568,12.09158 -1.1966972,0 -2.4137542,-0.39485 -2.6651992,-0.86467 -0.136425,-0.25492 -0.07102,-0.30313 0.437169,-0.32223 0.801296,-0.0301 1.703316,-0.51333 3.2444762,-1.73803 1.877552,-1.49202 3.919718,-3.95076 6.547524,-7.88314 4.2144468,-6.3067 10.1097568,-17.63622 12.4814298,-23.9866 1.687871,-4.5194 2.148869,-7.63144 1.384652,-9.34707 -0.443863,-0.99644 -1.699341,-2.37347 -2.819126,-3.09203 -4.194592,-2.69166 -13.9172808,-1.97075 -29.458935,2.18432 -2.232343,0.59682 -6.112172,1.46855 -6.536091,1.46855 -0.02987,0 0.174481,0.76484 0.454112,1.69965 1.151053,3.84801 1.671507,6.98791 2.940059,17.73743 1.182917,10.02386 1.611125,13.28239 2.531345,19.26276 2.588402,16.82161 5.21121,26.98737 9.009669,34.92062 0.839315,1.75293 1.030583,2.29808 0.886854,2.52769 -0.270045,0.43143 -0.973389,0.44791 -1.498172,0.0351 z m 96.094966,-5.14766 C 90.01,90.308111 87.70096,88.124781 86.70822,84.865091 c -0.43582,-1.43107 -0.48929,-4.11433 -0.11685,-5.86506 0.90284,-4.24393 4.042197,-10.00705 8.356437,-15.34047 1.62868,-2.0134 5.583853,-5.98144 7.521393,-7.54582 6.2401,-5.03832 11.17799,-6.42824 13.23876,-3.72645 0.55902,0.73292 0.79743,1.94856 0.59528,3.03548 -0.47099,2.53259 -3.81978,7.37159 -7.9942,11.55163 -3.72502,3.73002 -7.17769,5.8875 -10.104653,6.31411 l -1.46294,0.21323 -0.99813,2.09543 c -2.26134,4.74735 -2.50494,7.71034 -0.70416,8.56505 0.84123,0.39928 2.79913,0.50762 4.58363,0.25363 5.170793,-0.73596 15.587743,-4.49137 27.992593,-10.0916 1.07863,-0.48695 1.96114,-0.84966 1.96114,-0.80603 0,0.195 -5.32198,4.0261 -8.88259,6.39427 -5.31799,3.537 -8.82749,5.61767 -13.16935,7.8077 -6.3231,3.18936 -10.729063,4.24192 -14.207373,3.39407 z m 6.67743,-20.51203 c 2.933943,-1.71635 6.832323,-5.68637 9.517533,-9.69245 0.91766,-1.36904 2.33276,-4.05753 2.20368,-4.18662 -0.35256,-0.35256 -5.15824,3.71741 -7.51698,6.36618 -2.38947,2.68329 -6.174923,7.76301 -6.174923,8.28617 0,0.24493 0.69907,-0.0294 1.97069,-0.77328 z m -120.27296,13.81525 c -0.562223,-0.37613 -2.106013,-1.63807 -3.430644,-2.8043 l -2.40842,-2.12043 -1.262509,0.16871 c -1.174397,0.15692 -2.557043,0.0594 -3.29807,-0.23266 -0.295379,-0.11641 -0.296169,-0.14134 -0.01433,-0.45277 0.164042,-0.18126 0.719213,-0.60898 1.233715,-0.95049 l 0.935459,-0.62092 -1.664021,-1.59924 c -1.531668,-1.47204 -1.663863,-1.65187 -1.662,-2.26088 0.0014,-0.47682 0.127508,-0.78712 0.451249,-1.11086 0.4883,-0.4883 0.350725,-0.48452 4.4341,-0.12184 l 1.13537,0.10084 0.572184,-0.88303 c 0.778403,-1.20128 1.724923,-2.31632 2.277311,-2.68278 1.239964,-0.82259 2.539169,0.0329 3.436762,2.26291 0.307918,0.76502 0.610769,1.26479 0.769318,1.26955 0.143817,0.004 0.809504,0.0784 1.479308,0.16468 1.38661,0.17855 1.83284,0.53977 1.83284,1.48365 0,0.74869 -0.485178,1.33295 -1.655288,1.99332 -0.527761,0.29785 -0.959566,0.60491 -0.959566,0.68237 0,0.0774 0.195912,1.39075 0.435357,2.91843 0.239448,1.52768 0.435562,3.18247 0.435809,3.67731 3.49e-4,0.79092 -0.0644,0.95427 -0.535895,1.35101 -0.743427,0.62555 -1.336596,0.57119 -2.538033,-0.23258 z m -0.114828,-4.07964 c -0.04878,-0.12711 -0.144753,-0.75467 -0.213282,-1.39459 -0.06853,-0.63991 -0.184324,-1.16348 -0.257324,-1.16348 -0.073,0 -0.397256,0.10609 -0.720568,0.23575 -0.323311,0.12966 -0.734567,0.28771 -0.913899,0.35123 -0.277326,0.0982 -0.160083,0.27027 0.784456,1.15112 1.097826,1.02381 1.492988,1.26916 1.320617,0.81997 z m -3.435089,-4.77986 1.307427,-0.48023 -1.3805,-0.0515 c -1.460925,-0.0544 -2.003912,0.16901 -1.786633,0.73523 0.143613,0.37424 0.347367,0.35194 1.859706,-0.20355 z m 2.022628,-3.45992 c -0.05861,-0.15273 -0.153947,-0.46651 -0.211871,-0.6973 -0.05792,-0.23079 -0.176365,-0.41961 -0.263199,-0.41961 -0.179968,0 -1.186033,1.06509 -1.193801,1.26384 -0.0028,0.0719 0.395511,0.13075 0.885159,0.13075 0.742807,0 0.872619,-0.046 0.783712,-0.27768 z m 274.840292,12.0723 c -0.21931,-0.12174 -1.04299,-1.123 -1.8304,-2.22502 -2.49113,-3.4865 -2.52512,-3.522 -3.24745,-3.39236 -0.65802,0.11811 -4.49197,0.60663 -4.83391,0.61594 -0.10984,0.003 -0.45141,0.39767 -0.75904,0.87706 -0.30763,0.47939 -0.58688,0.87161 -0.62057,0.87161 -0.0337,0 0.0529,-0.32364 0.1925,-0.71921 0.34726,-0.98424 0.33263,-1.0276 -0.3128,-0.92699 -0.56244,0.0877 -0.56133,0.0856 0.15175,-0.28926 0.67954,-0.35719 0.75794,-0.4842 1.45223,-2.35278 0.40365,-1.08637 0.68337,-2.057 0.62159,-2.15696 -0.0618,-0.1 -1.06829,-0.74369 -2.23668,-1.4305 -2.88418,-1.69541 -3.55775,-2.19417 -3.76464,-2.78764 -0.35408,-1.01576 0.33437,-1.80272 1.73878,-1.98751 0.42521,-0.0559 2.22436,0.0658 3.99811,0.2706 2.62843,0.30346 3.2497,0.33014 3.3586,0.14423 0.0735,-0.12546 0.84925,-1.48324 1.72392,-3.01729 2.80635,-4.92193 3.22785,-5.36733 4.47095,-4.72449 0.92838,0.48009 1.51032,2.82862 1.71808,6.93363 0.11314,2.23514 0.11512,2.24338 0.56589,2.34243 2.62042,0.57574 4.22888,1.21314 4.54315,1.80035 0.35817,0.66926 0.21407,1.51905 -0.35389,2.08702 -0.6286,0.62859 -2.29196,1.58636 -3.66796,2.11203 l -0.97703,0.37325 -0.11161,1.68516 c -0.0614,0.92683 -0.112,2.49279 -0.11249,3.47989 0,1.67249 -0.03,1.82389 -0.42878,2.22263 -0.48024,0.48024 -0.70225,0.51396 -1.2783,0.19418 z m -0.62816,-6.49101 c -0.0657,-0.17111 -0.22864,-0.18877 -0.6437,-0.0697 -0.30568,0.0877 -0.59082,0.19443 -0.63363,0.23724 -0.0428,0.0428 0.2228,0.48149 0.59024,0.97483 l 0.66806,0.89699 0.0535,-0.90509 c 0.0294,-0.4978 0.0139,-1.0082 -0.0344,-1.13423 z m -6.91168,-0.48335 1.26032,-0.58376 -0.66755,-0.55026 c -0.36716,-0.30264 -0.73108,-0.52908 -0.80872,-0.5032 -0.22065,0.0735 -1.38605,2.22099 -1.20533,2.22099 0.0885,0 0.72812,-0.26269 1.42128,-0.58377 z m 5.24445,-2.00336 1.47388,-0.49524 v -1.29157 -1.29158 l -1.91756,-0.29374 c -2.88754,-0.44233 -2.75461,-0.46726 -3.32598,0.62403 l -0.49237,0.94042 0.60174,0.49775 c 0.33097,0.27376 0.91553,0.78996 1.29905,1.1471 0.38351,0.35715 0.74007,0.65132 0.79233,0.65372 0.0523,0.002 0.75829,-0.2185 1.56891,-0.49089 z m 5.09859,-1.88454 c 0.50912,-0.26327 0.52701,-0.29951 0.20925,-0.42356 -0.19112,-0.0746 -0.524,-0.14116 -0.73972,-0.1479 -0.30543,-0.01 -0.39223,0.0842 -0.39223,0.42355 0,0.51143 0.16773,0.53832 0.9227,0.14791 z m -10.22121,-2.09414 c -0.0613,-0.0632 -2.6353,-0.38544 -2.68465,-0.33609 -0.0292,0.0292 0.4382,0.37584 1.03857,0.77039 l 1.09159,0.71735 0.29114,-0.56149 c 0.16014,-0.30882 0.27864,-0.57439 0.26335,-0.59016 z m 6.60688,-2.97841 c -0.22838,-2.89644 -0.30398,-3.53005 -0.42125,-3.53005 -0.15869,0 -2.886,4.34432 -2.78851,4.44181 0.0876,0.0876 2.10773,0.38664 2.82202,0.41773 l 0.49426,0.0215 z m -11.13361,-26.2297 c -2.47353,-3.23343 -2.92511,-8.38815 -1.07338,-12.25223 0.74562,-1.55592 1.52512,-2.4876 2.42216,-2.89503 1.42299,-0.6463 2.79294,-0.26413 4.08088,1.13844 0.96298,1.04867 1.44478,2.14227 1.55638,3.53274 0.0536,0.66761 0.16782,1.10019 0.29051,1.10019 0.11122,0 1.10066,-0.30154 2.19876,-0.67009 2.97556,-0.99866 3.69315,-1.14435 4.43334,-0.90006 0.84856,0.28005 1.24513,1.04434 0.98767,1.90352 -0.41296,1.37812 -1.82754,3.12615 -4.69363,5.79998 -3.06318,2.8577 -5.67148,4.49998 -7.1474,4.50025 -0.88731,1.6e-4 -1.046,-0.25221 -0.75962,-1.20806 0.29759,-0.99323 1.33065,-2.04477 4.57394,-4.65573 1.6204,-1.30448 2.94619,-2.40045 2.94619,-2.4355 0,-0.035 -0.44019,0.13096 -0.97818,0.36889 -1.54076,0.6814 -3.2347,1.15323 -3.74101,1.04202 -0.25383,-0.0558 -0.6801,-0.32952 -0.94727,-0.60838 -0.48375,-0.50493 -0.48526,-0.514 -0.36798,-2.21689 0.12726,-1.84761 -0.0253,-2.63261 -0.64439,-3.3169 -0.19519,-0.21573 -0.45875,-0.39223 -0.58567,-0.39223 -0.36068,0 -1.23043,1.51748 -1.7485,3.05066 -0.42788,1.26628 -0.46977,1.61914 -0.45532,3.83512 0.0106,1.63103 0.13461,3.10407 0.37375,4.44102 0.1968,1.10026 0.33359,2.0247 0.30399,2.0543 -0.0296,0.0296 -0.49095,-0.51762 -1.02522,-1.21603 z m -175.788149,-7.3875 c -1.56811,-0.75877 -2.996779,-2.50233 -4.400189,-5.37003 -1.410992,-2.88316 -2.449107,-5.60497 -2.449107,-6.42125 0,-0.70951 0.369427,-1.26547 1.087693,-1.63689 1.304045,-0.67435 3.741768,0.32409 6.514176,2.66808 0.489726,0.41405 0.962316,0.75281 1.050216,0.75281 0.0879,0 0.66778,-0.60318 1.28863,-1.34041 3.74991,-4.45275 4.5916,-5.19672 5.87934,-5.19672 2.00568,0 2.16146,2.32669 0.39089,5.83852 -1.80169,3.57354 -6.49807,9.48262 -8.0462,10.12388 -0.42462,0.17588 -0.500416,0.28959 -0.41634,0.62459 0.05655,0.22526 0.08169,0.40669 0.05591,0.40319 -0.0258,-0.004 -0.45556,-0.2041 -0.955015,-0.44577 z m 0.125356,-2.38062 c 0.0023,-0.72442 0.659554,-2.1346 1.666723,-3.57538 0.78078,-1.11691 0.78514,-1.13091 0.32428,-1.04282 -0.80344,0.15359 -1.505598,-0.17311 -3.116436,-1.45 -1.525471,-1.20923 -2.53707,-1.8575 -2.53707,-1.62584 0,0.32562 1.145898,3.76327 1.663692,4.99099 0.639732,1.51686 1.636619,3.2696 1.859614,3.2696 0.07562,0 0.138256,-0.25495 0.139197,-0.56655 z m 136.699123,-1.26176 c 0.0171,-0.62205 -0.009,-1.17138 -0.0586,-1.22071 -0.0493,-0.0493 -0.55363,0.0698 -1.12066,0.26481 l -1.03096,0.35452 1.07631,-1.09494 1.07629,-1.09494 0.0568,-1.64536 0.0568,-1.64535 -2.70201,-1.10663 c -1.61225,-0.66031 -2.82349,-1.26224 -3.00321,-1.49247 -0.41217,-0.52803 -0.38357,-1.0641 0.0859,-1.60992 0.32457,-0.37733 0.78231,-0.54788 2.57127,-0.95798 1.19703,-0.2744 2.52569,-0.60408 2.95257,-0.73261 l 0.77616,-0.23369 0.64,-3.74269 c 0.77443,-4.5289 0.80359,-4.64334 1.26571,-4.96703 0.477,-0.3341 1.33085,-0.3287 1.81656,0.0115 0.54399,0.38104 1.75247,2.13175 2.92263,4.23403 0.742,1.33303 1.07549,1.77969 1.28367,1.71923 0.15468,-0.0449 1.37948,-0.40667 2.72177,-0.80388 2.72848,-0.8074 5.48082,-1.40885 6.44718,-1.40885 0.48065,0 0.77189,0.13216 1.17112,0.53139 0.45823,0.45822 0.51895,0.62419 0.44099,1.20544 -0.1851,1.37997 -1.68156,2.94389 -5.58669,5.83848 -1.13287,0.83974 -2.02093,1.61647 -1.97344,1.72606 2.29694,5.30082 2.64609,6.65296 1.87847,7.27469 -0.74931,0.60692 -1.37236,0.43424 -5.11479,-1.41756 l -3.53849,-1.7509 -2.01916,1.01002 -2.01915,1.01002 -0.47577,1.43817 c -0.26167,0.791 -0.51014,1.43817 -0.55213,1.43817 -0.042,0 -0.0624,-0.50895 -0.0452,-1.13101 z m 10.24979,-5.21484 c -0.30324,-0.72841 -0.59598,-1.32438 -0.65056,-1.32438 -0.17901,0 -1.78581,1.07943 -1.78581,1.1997 0,0.12828 2.84148,1.58143 2.93202,1.49946 0.0306,-0.0277 -0.19242,-0.64637 -0.49565,-1.37478 z m -8.15918,0.65332 c 0.4094,-0.3705 0.40232,-0.5206 -0.0299,-0.63362 -0.21906,-0.0573 -0.34865,-0.005 -0.34865,0.13973 0,0.127 -0.0476,0.35499 -0.10582,0.50665 -0.13721,0.35757 0.0815,0.35181 0.48433,-0.0128 z m 4.60193,-3.29813 c 0.90411,-0.63036 1.64385,-1.22066 1.64385,-1.31178 0,-0.0911 -0.27396,-0.70971 -0.60882,-1.37464 l -0.60883,-1.20896 -2.22393,0.78795 c -1.22316,0.43338 -2.27869,0.84209 -2.34561,0.90825 -0.0669,0.0662 -0.19191,0.56882 -0.27778,1.11701 l -0.15613,0.99672 1.23658,0.6019 c 0.68011,0.33104 1.34012,0.60814 1.46669,0.61577 0.12658,0.008 0.96987,-0.50186 1.87398,-1.13222 z m -6.31199,-1.20726 c 0.0725,-0.18892 -0.0191,-0.26149 -0.33,-0.26149 -0.45146,0 -0.58543,0.25701 -0.21243,0.40752 0.36308,0.14651 0.4379,0.12636 0.54243,-0.14603 z m 13.48759,-3.79281 c 1.59853,-1.19074 1.95906,-1.52406 1.64849,-1.52406 -0.19012,0 -3.30328,0.90519 -4.86646,1.41498 l -1.08553,0.35402 0.52399,1.03799 0.52398,1.03799 0.82303,-0.56102 c 0.45267,-0.30857 1.54728,-1.10052 2.4325,-1.7599 z m -9.50758,-0.59162 c 0.70061,-0.25417 1.33478,-0.51517 1.40929,-0.57999 0.1504,-0.13085 -1.47703,-3.18206 -1.74484,-3.27133 -0.0929,-0.031 -0.36518,0.9269 -0.60508,2.12858 -0.23989,1.20169 -0.41299,2.18489 -0.38468,2.18489 0.0283,0 0.62471,-0.20797 1.32531,-0.46215 z m -71.26495,13.45178 c -0.66006,-0.33419 -2.02379,-1.23891 -3.03051,-2.0105 -1.00672,-0.77158 -1.98976,-1.51575 -2.18457,-1.6537 -0.31552,-0.22346 -0.47215,-0.20317 -1.4358,0.18607 -0.59489,0.24029 -1.50486,0.49303 -2.02215,0.56166 -0.87247,0.11574 -0.99338,0.19175 -1.67081,1.05047 -0.54388,0.68943 -0.82723,0.91185 -1.11014,0.87144 -0.53034,-0.0758 -0.45478,-0.7382 0.23997,-2.10336 0.60018,-1.17934 1.55921,-3.57365 1.55921,-3.89274 0,-0.1086 -0.98572,-0.8504 -2.19047,-1.64844 -2.61419,-1.73168 -3.11438,-2.25113 -2.97781,-3.0926 0.19904,-1.22656 0.7218,-1.47884 4.78827,-2.31073 1.76215,-0.36048 3.26841,-0.72214 3.34726,-0.80368 0.0788,-0.0815 0.6239,-1.35501 1.21125,-2.82996 1.74146,-4.37326 2.07987,-4.90136 3.14086,-4.90136 0.46471,0 0.75675,0.12817 1.09229,0.47939 0.63042,0.65986 1.43702,2.45617 1.89817,4.22735 0.21221,0.81496 0.39265,1.49597 0.401,1.51335 0.008,0.0174 0.75925,-0.0801 1.6687,-0.21668 0.90944,-0.13655 2.19088,-0.24882 2.84764,-0.2495 1.12631,-10e-4 1.22778,0.0324 1.78682,0.59147 1.14114,1.14115 0.64128,2.59483 -1.54833,4.50277 -0.83612,0.72857 -3.26924,2.6668 -3.5726,2.84596 -0.0265,0.0156 0.0683,1.03963 0.21069,2.27556 0.62453,5.42272 0.56473,6.59851 -0.35688,7.01843 -0.62882,0.28651 -0.76966,0.25886 -2.09206,-0.41067 z m 0.20173,-4.14271 c -0.0702,-0.88687 -0.17903,-1.94013 -0.24179,-2.34058 l -0.11411,-0.72808 -1.52224,0.98957 c -0.83723,0.54426 -1.49976,1.06801 -1.47231,1.16389 0.0611,0.21329 3.10216,2.52769 3.3213,2.52769 0.0908,0 0.10306,-0.67906 0.0292,-1.61249 z m -7.93897,-1.61863 c 0,-0.20696 -0.49726,-0.0508 -0.58756,0.18449 -0.0831,0.21663 -0.0384,0.23155 0.24283,0.081 0.18959,-0.10147 0.34473,-0.22095 0.34473,-0.26552 z m 7.02801,-4.63845 c 0.15293,-0.10279 -0.0936,-2.51214 -0.27566,-2.69422 -0.10062,-0.10061 -4.18931,0.82087 -4.41021,0.99394 -0.20548,0.16097 -1.73283,3.80043 -1.62526,3.87271 0.0372,0.025 0.36544,0.29809 0.72948,0.60694 l 0.66192,0.56154 2.37642,-1.61437 c 1.30702,-0.8879 2.45151,-1.66484 2.54331,-1.72654 z m -7.55738,-0.0851 c 0.20202,-0.53993 0.33315,-1.01586 0.2914,-1.0576 -0.0417,-0.0418 -0.7141,0.0218 -1.49411,0.1412 -1.59463,0.24411 -1.59442,0.24111 -0.0859,1.28461 0.47254,0.32686 0.87314,0.59861 0.89022,0.60389 0.0171,0.005 0.19634,-0.43216 0.39835,-0.9721 z m 11.14825,-2.5259 c 0.49627,-0.39514 0.86433,-0.7564 0.81793,-0.80281 -0.0464,-0.0464 -0.5668,-0.0284 -1.15641,0.04 -0.9857,0.1144 -1.06397,0.15448 -0.97186,0.49774 0.0551,0.20533 0.10123,0.51061 0.10254,0.6784 0.003,0.45169 0.21015,0.38098 1.2078,-0.41337 z m -5.5285,-2.61233 c 0.50809,-0.10612 0.98281,-0.24751 1.05494,-0.31421 0.13993,-0.12937 -0.49924,-2.79809 -0.72574,-3.03019 -0.115,-0.11783 -1.07839,1.77042 -1.59051,3.11743 -0.18813,0.49484 -0.0985,0.51097 1.26131,0.22697 z m 42.37434,11.82903 c 1.34036,-1.88039 2.94411,-5.38992 4.04284,-8.84692 0.55487,-1.74579 1.33764,-5.08834 1.21931,-5.20666 -0.0454,-0.0454 -0.25872,0.074 -0.47406,0.26524 -3.99072,3.54453 -4.24023,3.72231 -5.22036,3.71952 -0.82466,-0.002 -2.23922,-0.87952 -3.21795,-1.99544 -0.46406,-0.52911 -0.90257,-0.96301 -0.97448,-0.96422 -0.25953,-0.004 -0.12314,2.22735 0.21503,3.51844 0.19017,0.72606 0.78998,2.44702 1.33291,3.82437 0.97714,2.47885 2.07551,6.04262 1.91259,6.20554 -0.16824,0.16824 -2.07192,-1.63834 -2.98175,-2.82965 -2.87069,-3.75883 -4.1898,-8.45348 -3.24721,-11.55671 0.61686,-2.03088 1.7756,-2.84497 3.11045,-2.18529 0.45767,0.2262 0.96795,0.78718 1.75286,1.92708 0.60898,0.8844 1.3479,1.77937 1.64206,1.98882 0.51486,0.36662 0.55513,0.36981 1.07917,0.0856 0.29938,-0.16239 1.32879,-0.95866 2.28757,-1.7695 2.41613,-2.0433 3.31904,-2.41429 4.0121,-1.64848 0.65571,0.72457 0.0999,3.67311 -1.51116,8.01596 -1.98942,5.36287 -3.93037,8.54186 -5.21533,8.54186 h -0.5412 z"
       id="path3210-8" /><path
       d="m 161.58768,100.46705 c -0.5471,-0.60453 0.175,-1.304077 0.92937,-0.900357 0.39582,0.211837 0.46541,0.695247 0.14605,1.014607 -0.30322,0.30322 -0.73957,0.25687 -1.07542,-0.11425 z m -0.0437,15.5851 c -0.13303,-0.34665 0.0641,-0.61848 0.44836,-0.61848 0.34268,0 0.52761,0.29925 0.40398,0.65371 -0.10488,0.30061 -0.73344,0.27463 -0.85234,-0.0352 z m -3.64825,-5.40069 c -0.38504,-0.58766 -0.084,-1.1448 0.6185,-1.1448 0.70255,0 1.00355,0.55714 0.6185,1.1448 -0.15282,0.23326 -0.43117,0.42412 -0.6185,0.42412 -0.18732,0 -0.46567,-0.19086 -0.6185,-0.42412 z"
       style="fill:#fdfb84;fill-opacity:1;stroke-width:0.174324;filter:url(#filter5242)"
       id="path4854" /><path
       style="fill:#ffffff;fill-opacity:1;stroke-width:0.174324"
       d="m 229.90874,171.6919 c -3.51068,-2.11998 -5.87514,-5.62256 -6.34271,-9.39569 -0.45934,-3.70682 1.20128,-6.76812 3.67143,-6.76812 1.01383,0 1.69385,0.26667 3.07934,1.20754 0.57506,0.39051 1.11919,0.71002 1.20918,0.71002 0.09,0 0.46354,-0.332 0.83014,-0.73779 2.63705,-2.91889 4.39651,-3.425 5.88034,-1.69151 1.25757,1.46922 1.22715,2.48983 -0.17898,6.00294 -1.68862,4.21892 -4.43758,8.38313 -6.18082,9.36288 -0.70085,0.3939 -0.70298,0.39828 -0.59326,1.22531 0.0606,0.4565 0.0486,0.82683 -0.0266,0.82294 -0.0752,-0.004 -0.68181,-0.33623 -1.34801,-0.73852 z m 2.14007,-3.74754 c 1.88991,-3.34624 3.38564,-6.89636 3.76228,-8.92979 l 0.11302,-0.61014 -0.83315,0.95592 c -2.07049,2.37569 -2.16224,2.44365 -3.2943,2.44085 -0.80342,-0.002 -1.28162,-0.12771 -2.20977,-0.5809 -0.65145,-0.31807 -1.21194,-0.53266 -1.24553,-0.47683 -0.18668,0.31032 0.39518,2.60368 1.42973,5.63538 0.64603,1.8931 1.18411,3.4424 1.19574,3.44289 0.0117,0 0.49853,-0.84434 1.08198,-1.87738 z M 99.196534,171.2608 c -2.30877,-3.02371 -3.4249,-5.10331 -4.65459,-8.6726 -1.736527,-5.04034 -2.505747,-8.88011 -4.016069,-20.04721 -0.72503,-5.36073 -1.195738,-7.79262 -1.765689,-9.12224 -0.419039,-0.97757 -0.410288,-1.89088 0.02496,-2.60474 0.823226,-1.35022 9.374038,-6.06841 16.164164,-8.91913 6.32571,-2.65573 13.10594,-4.50548 18.87453,-5.14927 2.49068,-0.27797 7.50562,-0.36402 7.22571,-0.12399 -0.0911,0.0781 -0.75395,0.28333 -1.47303,0.45606 -1.61141,0.38708 -8.12956,2.53534 -11.40599,3.75922 -6.74331,2.51887 -19.157626,8.39108 -24.199606,11.44687 -1.119157,0.67829 -1.118826,0.67723 -0.833615,2.67414 0.08901,0.62321 0.326177,3.25113 0.527032,5.83984 0.200856,2.58871 0.47932,5.80498 0.618814,7.14727 0.139494,1.34229 0.253779,2.49992 0.253969,2.57253 0,0.0726 1.00053,-0.36879 2.22298,-0.98082 4.615266,-2.31073 15.796626,-6.19501 22.356996,-7.76657 2.70484,-0.64796 6.83157,-1.2726 7.93263,-1.2007 0.82307,0.0537 0.81036,0.0614 -2.81205,1.68905 -4.74754,2.13327 -9.40815,3.96473 -13.83676,5.43738 -6.55457,2.1796 -10.00103,2.98231 -13.815146,3.2177 l -1.87397,0.11565 v 0.58184 c 0,0.98831 1.00523,6.60602 1.64723,9.20554 0.77677,3.1452 2.34289,8.17062 3.12198,10.0179 0.33139,0.78575 0.575146,1.42864 0.541686,1.42864 -0.0335,0 -0.405226,-0.45106 -0.826166,-1.00236 z m 82.276506,-2.58485 c -0.67675,-2.11771 -0.94613,-4.59012 -1.16093,-10.65508 -0.13273,-3.74763 -0.23602,-4.94445 -0.52206,-6.04999 -0.40724,-1.57383 -0.84774,-2.42918 -1.2954,-2.5154 -1.26055,-0.24276 -3.29667,1.77151 -4.63488,4.58515 -1.5351,3.22758 -2.31241,6.18888 -2.7028,10.29689 -0.29609,3.11563 -0.44897,3.64737 -1.15328,4.01159 -0.73796,0.38161 -1.31236,0.30761 -1.93574,-0.24937 -0.4642,-0.41479 -0.57896,-0.66616 -0.65645,-1.43817 -0.15194,-1.51339 0.13948,-4.94271 0.61209,-7.20286 0.71136,-3.40205 0.76951,-3.9421 1.0193,-9.46475 0.25167,-5.56439 0.35834,-6.14555 1.12803,-6.14555 0.78817,0 1.11796,1.00247 1.34327,4.08332 l 0.12652,1.72996 0.52906,-0.68401 c 0.95433,-1.23385 2.41996,-2.52813 3.50009,-3.09092 0.96111,-0.50076 1.20916,-0.55308 2.6301,-0.55475 1.39412,-0.002 1.6585,0.0508 2.37303,0.47088 3.56747,2.09722 4.67618,8.5355 3.01854,17.52852 -0.44229,2.3996 -1.28248,5.29749 -1.70237,5.87172 -0.22424,0.30667 -0.26198,0.26813 -0.51612,-0.52718 z m -53.29111,0.13919 -0.61013,-0.0798 0.69729,-0.3271 c 0.65035,-0.30507 0.66065,-0.32069 0.15299,-0.23184 -0.29937,0.0524 -1.07575,-0.028 -1.72528,-0.17864 -4.46795,-1.03618 -8.38537,-5.8593 -9.33962,-11.49891 -0.408,-2.4114 0.19802,-5.48677 1.4744,-7.48207 1.66631,-2.60485 5.2736,-4.63025 8.26818,-4.64236 1.94837,-0.008 4.60312,0.87587 6.58729,2.19288 1.92152,1.27544 4.25611,3.92774 5.33362,6.05944 2.37576,4.70008 1.05213,10.29593 -3.22739,13.64443 -0.68406,0.53524 -1.68255,1.19467 -2.21886,1.4654 -1.57196,0.79352 -3.94421,1.26801 -5.39249,1.07857 z m 4.62587,-3.74283 c 4.86683,-4.9567 4.97012,-9.57582 0.31728,-14.18872 -3.39483,-3.36567 -7.45942,-3.73199 -10.41316,-0.93847 -1.38547,1.31034 -1.90316,2.56494 -1.99372,4.83188 -0.061,1.52783 -0.007,1.99815 0.38291,3.35892 0.52826,1.84156 1.07361,2.9885 2.12869,4.47688 1.78303,2.51526 4.38071,4.05379 6.86566,4.06632 l 1.12908,0.006 1.58326,-1.61249 z m 19.03784,1.9462 c -3.35604,-0.79096 -6.61889,-4.9874 -8.25459,-10.61646 -0.64154,-2.20778 -0.89858,-3.94054 -1.10822,-7.47095 -0.21695,-3.65315 -0.12865,-4.12391 0.77349,-4.12391 0.99451,0 1.48972,1.31341 2.10328,5.57836 0.66168,4.59947 2.19782,8.64599 4.23718,11.16169 1.16516,1.4373 2.12321,2.04836 3.35474,2.13967 1.46559,0.10867 2.63396,-0.58233 4.06552,-2.4045 2.17915,-2.77368 3.99764,-7.6998 5.50277,-14.90631 0.74549,-3.56943 0.72198,-3.53059 1.259,-2.07914 0.66893,1.80795 0.88981,3.10202 0.87564,5.12981 -0.0376,5.37567 -2.55736,11.76733 -5.9717,15.14799 -2.14177,2.12063 -4.55235,2.98224 -6.83711,2.44375 z m 44.93262,-2.68017 c -3.83372,-0.70097 -6.4374,-2.35911 -7.69271,-4.89905 -1.61807,-3.27397 -0.66863,-7.22061 2.67401,-11.11528 1.6613,-1.93563 4.08768,-3.53467 6.4237,-4.23331 1.42206,-0.42529 4.02428,-0.42142 5.30646,0.008 0.52733,0.17657 1.32674,0.50526 1.77648,0.73043 l 0.8177,0.4094 0.086,-0.73857 c 0.0473,-0.40621 0.17273,-2.18982 0.27878,-3.96356 0.10604,-1.77375 0.34524,-4.75468 0.53158,-6.6243 0.3552,-3.56392 0.72904,-7.74605 1.04033,-11.63776 0.10168,-1.2713 0.2732,-2.50531 0.38115,-2.74225 0.36905,-0.80993 1.49431,-0.79309 1.8684,0.028 0.60869,1.33591 0.63749,5.3836 0.10026,14.09055 -0.44456,7.20494 -0.62,11.80372 -0.50828,13.32413 0.0951,1.2949 0.21259,1.70191 0.88363,3.06229 0.87545,1.77479 1.34949,3.72436 1.17337,4.82573 -0.26472,1.65548 -1.93811,2.53205 -3.19967,1.67609 -0.8165,-0.554 -1.30274,-1.48899 -1.75218,-3.36924 -0.52121,-2.18044 -0.56012,-2.2525 -1.59136,-2.94699 -1.31062,-0.88262 -2.92434,-1.38626 -4.06462,-1.26857 -2.24745,0.23195 -4.72206,2.30096 -6.01117,5.02587 -0.73341,1.55031 -0.72713,2.5688 0.0197,3.19722 1.24759,1.04977 3.31001,1.73919 6.0308,2.01594 1.4457,0.14706 3.60274,0.12567 9.45831,-0.0937 4.17202,-0.15633 7.97773,-0.25894 8.45712,-0.22801 0.81022,0.0523 0.42346,0.2057 -5.4912,2.17848 -10.00082,3.33569 -13.27481,3.96918 -16.99655,3.28867 z M 25.592499,159.81889 c -3.811551,-0.92689 -6.711459,-5.16067 -6.711459,-9.79848 0,-2.89213 0.898464,-5.62607 2.790241,-8.49047 3.088805,-4.67682 8.216952,-8.29125 13.944824,-9.82857 2.184641,-0.58635 5.741644,-0.743 7.653834,-0.33709 5.017312,1.06507 8.596838,5.41238 8.120324,9.86208 -0.410061,3.82914 -3.027146,8.04784 -7.420728,11.9621 -3.884662,3.4609 -9.254596,5.98347 -14.048599,6.59946 -2.462025,0.31634 -3.135158,0.32115 -4.328437,0.031 z m 4.805839,-3.87458 c 2.186384,-0.64908 5.792146,-2.91492 9.737873,-6.11921 l 0.597825,-0.48549 -0.663632,1.04594 c -0.364981,0.57527 -1.091353,1.6735 -1.614132,2.44053 l -0.950534,1.39459 1.160019,-1.13311 c 3.274041,-3.19812 6.762221,-8.58726 7.334403,-11.3315 0.39446,-1.89181 -0.05132,-3.11576 -1.551549,-4.26003 -3.627273,-2.76666 -11.613054,-0.62025 -16.689758,4.48583 -1.81436,1.82485 -3.225022,4.12704 -3.76023,6.13657 -0.357817,1.34346 -0.303236,3.56067 0.114635,4.65753 1.104724,2.89982 3.359983,4.03671 6.28508,3.16835 z m -32.8486478,1.15773 c -1.623615,-0.52009 -2.959317,-2.24539 -3.777613,-4.87944 -1.810893,-5.82918 -2.944946,-17.37938 -2.961709,-30.16464 -0.0055,-4.22952 -0.0418,-4.92169 -0.243853,-4.65527 -0.390695,0.51515 -3.2800932,6.77168 -4.7690212,10.32656 -2.148311,5.12919 -4.017941,10.24491 -7.00948,19.17948 -1.510599,4.51158 -2.871218,8.44398 -3.023597,8.73864 -0.152382,0.29467 -0.40897,0.58639 -0.570199,0.64825 -0.408013,0.15658 -0.940017,-0.37437 -0.940017,-0.93815 0,-1.40957 1.316879,-7.15635 2.876982,-12.555 2.941183,-10.17778 6.902976,-20.51572 10.849784,-28.31153 1.868395,-3.69048 2.7613502,-4.57964 4.4374452,-4.41859 0.923251,0.0887 1.536743,0.52641 2.017022,1.43904 0.635305,1.20724 0.753793,2.40128 1.003302,10.11076 0.330378,10.20803 0.792789,16.35511 1.671937,22.22626 0.567616,3.79069 1.5309451,7.84456 1.8641123,7.84456 0.069834,0 0.531164,-0.60795 1.0252145,-1.351 3.1936779,-4.8034 7.4208682,-14.08749 14.664013,-32.20629 5.145457,-12.87138 6.30891,-16.26509 6.30891,-18.402536 0,-0.65738 -0.02355,-0.68594 -0.566551,-0.68704 l -0.566552,-0.001 0.522971,-0.34635 c 1.583154,-1.04848 2.96758,0.27953 3.392459,3.254226 0.557103,3.90046 -1.736803,12.11062 -7.054161,25.24768 -3.362005,8.30615 -5.626172,13.35033 -8.6490648,19.26866 -4.1347988,8.09531 -6.191207,10.54308 -9.0127564,10.72805 -0.5444474,0.0357 -1.2147566,-0.007 -1.4895776,-0.0952 z M 63.173004,154.5015 c -0.726703,-1.02058 -0.930853,-1.7956 -1.019183,-3.86928 -0.264832,-6.21776 2.14547,-14.45744 7.613304,-26.02615 l 1.060672,-2.24416 -0.8272,0.10788 c -6.148359,0.80181 -8.441202,0.80056 -11.548102,-0.006 l -1.133103,-0.29428 1.307427,-0.21874 c 0.719085,-0.1203 2.523334,-0.49909 4.009443,-0.84172 1.486108,-0.34263 4.31015,-0.95857 6.275649,-1.36875 3.429973,-0.71579 3.586603,-0.76654 3.896237,-1.2622 0.177444,-0.28403 1.067924,-1.81078 1.978869,-3.39277 5.823646,-10.11367 12.272694,-17.700596 17.558569,-20.656626 2.645078,-1.47921 5.417628,-2.26382 6.462818,-1.82893 l 0.52297,0.21761 -0.61013,0.16711 c -1.45184,0.39767 -5.156177,3.4577 -7.811265,6.45262 -2.119757,2.391066 -4.903583,6.072466 -7.087422,9.372566 -2.209865,3.33944 -5.371677,8.55114 -5.257216,8.6656 0.242816,0.24281 15.441166,-3.88015 19.589353,-5.31414 1.07863,-0.37287 1.961136,-0.65431 1.961136,-0.62542 0,0.1277 -2.688226,1.83716 -4.339886,2.75977 -4.977898,2.78063 -9.765852,4.60487 -16.491779,6.2835 l -2.963501,0.73962 -1.430936,2.76677 c -4.213523,8.14707 -7.532104,16.2854 -8.91191,21.85523 -0.29689,1.19848 -0.708625,3.35573 -0.914972,4.7939 -0.565785,3.9435 -1.061177,4.93106 -1.889842,3.76731 z m 169.523066,-5.32304 c -1.55415,-1.61587 -2.11552,-2.63105 -2.3754,-4.29566 -0.82783,-5.30247 2.13757,-14.4283 7.30356,-22.47619 5.20438,-8.10773 13.0461,-15.59036 18.46844,-17.62274 1.35447,-0.50768 1.72869,-0.57268 3.35492,-0.58275 2.12487,-0.0131 2.84587,0.26013 3.88294,1.47171 0.81693,0.9544 1.06904,1.93675 0.95175,3.70869 -0.23422,3.53894 -3.16468,9.33364 -9.84886,19.47506 -6.70182,10.16821 -12.22082,16.97816 -16.34662,20.17027 -1.26076,0.97543 -2.32549,1.44586 -3.27252,1.44586 -0.85808,0 -0.89517,-0.0227 -2.11821,-1.29425 z m 2.21196,-3.71755 c 6.46378,-7.37236 18.1273,-24.05298 22.03244,-31.50977 1.14494,-2.18623 2.06853,-4.4182 1.8986,-4.58815 -0.16878,-0.16878 -1.98606,0.52817 -3.14867,1.20757 -5.33061,3.11502 -12.17919,10.47258 -16.5343,17.76305 -3.40114,5.69353 -5.7038,11.55872 -6.15951,15.68913 -0.14675,1.3301 -0.11532,3.48647 0.0508,3.48647 0.0356,0 0.87287,-0.92174 1.86061,-2.0483 z m -90.42372,-8.62902 c 0.0626,-0.21573 0.26943,-0.82157 0.45967,-1.34634 1.08367,-2.98923 1.74174,-7.5666 1.37934,-9.59444 -0.11975,-0.67006 -0.26944,-1.21815 -0.33263,-1.21798 -0.2765,0 -1.0798,1.60512 -1.50262,3.00103 -0.52766,1.742 -1.04078,2.32665 -1.89251,2.1563 -0.27311,-0.0546 -1.13725,-0.55942 -1.92031,-1.12179 -0.78308,-0.56237 -1.6077,-1.11888 -1.83249,-1.2367 -0.38198,-0.2002 -0.40117,-0.18756 -0.29328,0.19297 0.25995,0.9168 1.21775,2.59451 2.37221,4.15514 1.14314,1.54537 2.94936,4.36165 2.94936,4.59871 0,0.15449 -2.16184,-0.68587 -3.19516,-1.24203 -1.35367,-0.72861 -3.39261,-2.86066 -4.19211,-4.38353 -1.52739,-2.90939 -1.55839,-5.56054 -0.0755,-6.4646 0.31737,-0.1935 0.80267,-0.3521 1.07845,-0.35246 0.65115,0 2.3404,0.86004 3.76884,1.92071 l 1.13241,0.84085 0.31212,-0.79462 c 0.74569,-1.89835 2.25786,-3.5365 3.26456,-3.5365 1.06791,0 1.67117,0.92956 1.9269,2.96906 0.42615,3.39855 -0.89503,9.69231 -2.36084,11.24654 -0.66709,0.7073 -1.22304,0.81871 -1.04636,0.20968 z m 44.27507,-14.19048 c -2.78317,-0.29051 -6.80485,-1.31908 -8.48485,-2.17007 -0.36577,-0.18527 -0.66501,-0.25014 -0.69798,-0.15128 -0.0878,0.26351 -2.39611,-0.92264 -3.26492,-1.67773 -0.91729,-0.79722 -2.68464,-2.98551 -3.15357,-3.90469 -0.2672,-0.52377 -0.4648,-0.68143 -0.97363,-0.77689 l -0.63839,-0.11976 0.45704,-0.47705 c 0.25138,-0.26237 0.45704,-0.5792 0.45704,-0.70406 0,-0.13536 0.11129,-0.18431 0.27566,-0.12124 0.15159,0.0582 0.44576,-0.0168 0.65371,-0.16654 0.36622,-0.26378 0.35895,-0.26946 -0.23207,-0.18137 -1.8198,0.27124 -3.02136,0.2783 -4.69802,0.0276 -0.99734,-0.14912 -2.03488,-0.27114 -2.30563,-0.27114 -0.27075,0 -0.49227,-0.0641 -0.49227,-0.14248 0,-0.0784 -0.45106,-0.28467 -1.00236,-0.45845 -2.25887,-0.71201 -5.51785,-2.35266 -10.76448,-5.41909 -3.02486,-1.7679 -5.47536,-3.86416 -7.61113,-6.510886 -6.68388,-8.28296 -8.03335,-16.65162 -4.6055,-28.56086 1.71487,-5.95794 4.40109,-11.3308 7.79523,-15.59164 1.5717,-1.97306 4.38341,-4.64317 6.44008,-6.11574 5.60367,-4.01224 16.31256,-7.46251 25.87309,-8.33597 9.30216,-0.84985 18.56847,2.08227 25.68601,8.12779 2.6919,2.28645 2.42517,2.11739 2.71819,1.72279 0.19823,-0.26696 0.31851,-0.29952 0.56689,-0.15348 0.39805,0.23403 1.09973,1.58864 1.09973,2.12303 0,0.23769 0.40358,0.87986 0.97998,1.55931 1.19483,1.40846 2.43867,3.30495 2.75428,4.19952 0.12872,0.36483 0.58979,1.32688 1.0246,2.13789 0.43482,0.81101 1.02844,2.15596 1.31918,2.98878 0.94799,2.71557 1.06923,3.81652 1.06923,9.7099 0,5.62904 -0.10505,6.99939 -0.79666,10.39201 -0.23455,1.15054 -0.54192,2.86011 -0.68305,3.79906 -0.4118,2.73981 -1.31796,5.15028 -3.06916,8.16433 l -0.67127,1.15532 0.78301,1.37237 c 1.6449,2.883006 2.52063,5.841186 2.5175,8.503936 -0.003,2.73072 -0.64861,4.56421 -2.44147,6.93583 -1.0687,1.41369 -4.94121,4.67238 -5.55251,4.67238 -0.10555,0 -0.57605,0.23636 -1.04552,0.52523 -2.1443,1.3194 -5.91637,2.8129 -8.86805,3.51118 -1.27656,0.302 -2.20037,0.36905 -5.62406,0.40815 -2.25314,0.0257 -4.41039,0.0141 -4.7939,-0.026 z m 8.36753,-2.41561 c 4.70224,-1.06527 9.69194,-3.1697 13.51008,-5.69791 0.99947,-0.66181 1.21029,-0.90449 1.78769,-2.05772 1.5762,-3.1482 1.7663,-6.34426 0.58543,-9.84284 -0.75366,-2.23286 -1.99446,-4.674836 -2.31321,-4.552526 -0.1318,0.0506 -0.17903,-0.0146 -0.12072,-0.16648 0.18777,-0.48929 -3.60762,-5.13672 -4.19495,-5.13672 -0.26726,0 -2.17577,-2.27683 -2.67341,-3.18934 -0.46682,-0.85599 -0.71007,-1.01345 -1.58438,-1.02551 -1.69444,-0.0234 -4.01969,2.21241 -4.03391,3.87873 -0.0117,1.37074 1.33892,3.36888 2.89269,4.27944 0.42034,0.24634 0.76427,0.5136 0.76427,0.59391 0,0.0803 0.15689,0.19581 0.34864,0.25667 0.47985,0.15229 0.43656,0.37745 -0.10742,0.55877 -0.45522,0.15175 -0.45432,0.15338 0.49906,0.8889 1.49451,1.152996 2.89096,2.718786 3.40705,3.820166 0.41485,0.88533 0.47221,1.21967 0.472,2.75104 0,1.64579 -0.0359,1.81825 -0.63812,3.08504 -1.83625,3.86264 -5.84357,5.73538 -10.60551,4.95626 -3.84776,-0.62955 -10.50417,-3.08076 -14.47252,-5.32948 -0.68629,-0.3889 -1.27239,-0.7071 -1.30242,-0.7071 -0.03,0 0.29079,0.60606 0.71291,1.34679 0.74053,1.29947 0.85687,1.65172 0.79305,2.40117 -0.0599,0.70394 -0.15285,0.78272 -0.69858,0.59247 -0.45581,-0.15889 -0.60158,-0.11288 -1.27795,0.40341 -0.43018,0.32836 -1.44567,0.8079 -2.32618,1.09848 -0.85946,0.28364 -1.58978,0.5308 -1.6229,0.54925 -0.0331,0.0185 0.62291,0.71511 1.45782,1.54814 1.71789,1.71402 2.78935,2.30627 5.7513,3.17898 2.20898,0.65086 3.32777,0.856 7.84292,1.43814 4.64864,0.59932 4.84466,0.60152 7.14727,0.0799 z m 3.23881,-10.52188 c 1.33035,-0.51206 2.30025,-1.39324 2.93777,-2.66902 0.60531,-1.21134 0.70092,-2.37176 0.27866,-3.38235 -0.33992,-0.81354 -1.92598,-2.36572 -3.75322,-3.673046 -1.47773,-1.05726 -1.48449,-1.0599 -2.49191,-0.97396 -0.9647,0.0823 -1.02556,0.11635 -1.35219,0.75661 -0.49426,0.968826 -1.47746,1.881486 -2.56165,2.377836 -1.32312,0.60575 -2.85422,0.51587 -3.91522,-0.22983 -0.99542,-0.69961 -1.69851,-1.87881 -1.86891,-3.134476 -0.1128,-0.83126 -0.23847,-1.10108 -0.70838,-1.52094 -0.53313,-0.47636 -0.64819,-0.50572 -1.72463,-0.44009 -0.87542,0.0534 -1.65756,0.27761 -3.24528,0.93044 -3.27441,1.34633 -3.93703,1.22239 -5.12557,-0.95866 l -0.51954,-0.95339 -0.18893,0.49691 c -0.5158,1.3567 -0.55063,2.02555 -0.17993,3.45567 0.38196,1.473516 0.30518,1.876476 -0.35749,1.876476 -0.4462,0 -1.33249,-1.14372 -1.66721,-2.151446 -0.6621,-1.99337 0.17085,-5.37006 1.53399,-6.21864 1.10891,-0.69032 2.10883,-0.10789 3.22168,1.87654 0.33604,0.59923 0.65071,1.08952 0.69928,1.08952 0.0486,0 1.00276,-0.29368 2.12045,-0.65263 1.68943,-0.54255 2.28211,-0.65281 3.51393,-0.65371 1.3147,-0.001 1.57664,0.0547 2.32332,0.49358 0.88056,0.51759 1.75285,1.66929 1.95239,2.57776 0.14547,0.66233 1.09951,1.66385 1.73751,1.82397 0.60764,0.15251 1.86051,-0.15868 2.68138,-0.666 l 0.59842,-0.36985 -1.51494,-0.40215 c -0.83322,-0.22119 -1.68052,-0.49078 -1.88289,-0.59909 -0.30189,-0.16157 -0.39917,-0.14114 -0.54182,0.11376 -0.14425,0.25776 -0.25866,0.097 -0.6717,-0.94384 -0.27379,-0.68998 -0.6155,-1.92938 -0.75935,-2.75422 -0.4336,-2.48647 -0.27394,-8.36781 0.28435,-10.47412 0.15153,-0.57164 0.14671,-0.79917 -0.0212,-1.00149 -0.32453,-0.39101 0.20714,-1.09292 1.14059,-1.50583 3.16705,-1.40093 11.1895,-2.01867 13.67893,-1.05329 0.52937,0.20529 1.23355,0.59953 1.56482,0.87609 l 0.6023,0.50283 -0.57474,0.12624 c -0.40143,0.0882 -0.54567,0.20205 -0.47829,0.37763 0.0531,0.13827 0.22229,0.68421 0.37607,1.2132 0.15378,0.52899 0.33163,0.93681 0.39522,0.90626 0.0636,-0.0306 0.52745,-0.3211 1.03081,-0.64567 0.88466,-0.57044 0.91531,-0.6169 0.91823,-1.39212 0.0115,-3.03343 1.87782,-6.6935 4.31516,-8.46228 l 0.74752,-0.54247 0.0575,-1.47697 c 0.0933,-2.39443 1.16185,-4.60498 2.4515,-5.07132 0.58986,-0.2133 0.61529,-0.25552 0.50775,-0.84279 -0.35276,-1.92619 -1.53602,-5.77932 -2.06558,-6.72626 -0.59333,-1.06094 -2.11859,-3.04397 -2.3413,-3.04397 -0.0642,0 -0.215,0.37262 -0.335,0.82804 -0.37997,1.44209 -1.74454,4.03506 -2.54443,4.83494 -1.24362,1.24363 -2.43012,1.25854 -3.97015,0.0499 -2.27089,-1.78225 -4.20385,-3.72317 -6.81506,-6.84314 l -0.4353,-0.52013 -0.57759,1.30459 c -1.3463,3.0409 -2.78217,5.38928 -4.01652,6.56905 -0.69548,0.66473 -1.74846,1.13841 -2.18626,0.98348 -0.44688,-0.15814 -1.09927,-0.77641 -1.09927,-1.04176 0,-0.12334 -0.39656,-0.48228 -0.88127,-0.79765 -0.99746,-0.64902 -1.85294,-1.83088 -2.40506,-3.3227 -0.82941,-2.24106 -1.64113,-3.37835 -2.6956,-3.77675 -0.8413,-0.31787 -2.67163,-0.20697 -4.70869,0.28529 -1.87513,0.45313 -1.92181,0.47553 -1.25054,0.60008 0.38351,0.0712 0.97185,0.13756 1.30742,0.14755 l 0.61014,0.0182 -0.8291,0.43157 c -3.44568,1.79359 -7.16603,0.80635 -8.69946,-2.30851 -0.50722,-1.0303 -0.56642,-1.30843 -0.5645,-2.65223 0.002,-1.14891 0.1051,-1.79783 0.44086,-2.76508 0.24132,-0.69511 0.42929,-1.26384 0.41774,-1.26384 -0.0115,0 -0.92183,0.30263 -2.02282,0.67252 -5.98533,2.0108 -10.16965,4.44836 -13.46495,7.84392 l -1.36286,1.40433 0.12442,0.83587 c 0.18027,1.21114 0.70362,2.63232 1.21742,3.30594 0.24569,0.32213 0.8537,0.80026 1.35111,1.06253 0.84661,0.44638 1.03808,0.47586 2.99628,0.46133 1.66304,-0.0123 2.73513,-0.14458 5.22971,-0.64508 1.7258,-0.34626 3.72487,-0.708 4.44237,-0.80387 0.7175,-0.0959 1.33307,-0.25992 1.36795,-0.36456 0.0397,-0.11902 0.13866,-0.13034 0.26436,-0.0302 0.11344,0.0903 0.61856,0.10303 1.15974,0.0292 0.52733,-0.072 0.98619,-0.10673 1.01969,-0.0773 0.0335,0.0294 -0.342,0.25772 -0.83448,0.50727 -0.58829,0.29811 -0.85227,0.52634 -0.76968,0.66543 0.59682,1.00483 2.20551,3.1341 2.79394,3.69804 1.6578,1.58881 5.296,3.22697 8.87551,3.99635 l 0.5384,0.11572 0.79425,-1.88164 c 0.43684,-1.03491 0.90057,-2.18661 1.03052,-2.55935 l 0.23626,-0.6777 0.1207,0.6777 c 0.56421,3.16809 -0.40384,8.23471 -2.17755,11.39673 -0.98636,1.75843 -3.16662,3.96594 -4.55936,4.61637 -3.32815,1.55427 -6.76456,0.57735 -9.27137,-2.63572 l -0.72142,-0.92467 -0.22149,0.53475 c -0.70579,1.70391 -2.83276,4.22959 -4.54335,5.39497 -2.6239,1.78762 -5.23736,1.80863 -8.78653,0.0706 -3.52809,-1.72767 -7.40829,-4.97943 -9.6402,-8.07885 -0.3581,-0.4973 -0.57938,-0.67938 -0.63555,-0.52297 -0.0474,0.13196 -0.26049,1.18128 -0.47353,2.33182 -0.55387,2.99112 -0.54991,7.59212 0.009,10.19038 0.47584,2.21306 1.33881,4.58071 2.49306,6.83994 0.67675,1.32464 2.01457,3.59439 2.32268,3.94071 0.0255,0.0287 0.33809,-0.14572 0.69454,-0.38762 0.78887,-0.53533 1.58729,-0.70106 2.72714,-0.56606 1.69601,0.20087 3.55254,1.59675 5.43021,4.082876 0.98437,1.30337 1.03552,1.31117 3.49106,0.53275 l 1.75636,-0.55677 1.84093,0.37644 c 1.75509,0.3589 1.90595,0.36386 3.23552,0.10638 0.76702,-0.14854 2.06137,-0.31011 2.87633,-0.35905 1.32778,-0.0797 1.65386,-0.0323 3.13783,0.45624 0.91084,0.29988 2.15718,0.80414 2.76965,1.12059 l 1.11358,0.57536 -1.11358,0.24683 c -0.73207,0.16227 -1.88998,0.22973 -3.37978,0.19691 -2.41747,-0.0533 -4.15494,0.076 -4.0172,0.29884 0.0462,0.0748 0.53759,0.18409 1.09187,0.24275 1.27377,0.13481 3.26921,0.81174 4.682,1.58831 l 1.09299,0.60078 -0.26551,-0.64309 c -0.14603,-0.35369 -0.39498,-0.79041 -0.55321,-0.97047 -0.27589,-0.31394 -0.26264,-0.32387 0.32243,-0.24161 3.05566,0.42959 7.80519,1.66002 15.2668,3.95506 1.54148,0.47412 3.34573,0.98293 4.00944,1.13068 1.60797,0.35794 3.70386,0.26392 4.96856,-0.22288 z m -30.27091,-1.16222 c 0.47282,-0.14041 1.10039,-0.2565 1.39459,-0.25797 1.18066,-0.006 0.99265,-0.28728 -0.63358,-0.94825 -2.03831,-0.82845 -3.45108,-1.65448 -3.45108,-2.01779 0,-0.1541 0.25495,-0.40394 0.56655,-0.5552 l 0.56655,-0.27502 -1.04594,0.0877 c -0.72086,0.0604 -1.51813,-0.025 -2.56517,-0.27486 l -1.51921,-0.36254 -1.68364,0.51825 c -3.22331,0.9922 -4.01382,0.68984 -6.22572,-2.38127 -0.73962,-1.02692 -1.78241,-2.01407 -2.54321,-2.407486 -0.64955,-0.33589 -1.76032,-0.35154 -2.19871,-0.031 -0.31334,0.22912 -0.29541,0.28011 0.3833,1.089516 1.26002,1.5027 2.73408,2.78842 4.62781,4.03654 3.23016,2.12892 8.8222,4.79151 10.6063,5.05006 0.87791,0.12723 1.01097,0.0965 1.90271,-0.43929 0.52732,-0.31685 1.34563,-0.69097 1.81845,-0.83139 z m 44.10051,-14.035856 c 0.24811,-0.81991 0.45111,-1.5595 0.45111,-1.64354 0,-0.084 -0.39223,0.41658 -0.87162,1.11247 -0.47939,0.69589 -0.87161,1.31997 -0.87161,1.38684 0,0.27672 0.57399,0.91466 0.70217,0.78041 0.0764,-0.08 0.34185,-0.81627 0.58995,-1.63618 z m -18.62062,0.96881 c -0.49097,-0.74932 -0.84662,-2.48632 -0.71872,-3.51011 0.26216,-2.09832 1.85684,-4.1271 4.0585,-5.16333 1.31401,-0.61846 2.76724,-0.71885 3.68834,-0.25479 0.32717,0.16483 0.61321,0.27974 0.63567,0.25535 0.0224,-0.0244 -0.0634,-0.63268 -0.19073,-1.35176 -0.12734,-0.71909 -0.28148,-1.75626 -0.34251,-2.30482 l -0.11099,-0.99739 -0.72896,0.0866 c -0.40092,0.0477 -2.65086,0.20047 -4.99988,0.3396 -2.34901,0.13913 -4.64968,0.30553 -5.11261,0.36977 -0.75362,0.10458 -0.8299,0.15517 -0.72911,0.48347 0.34429,1.12136 0.44885,1.84577 0.63539,4.40277 0.19465,2.66793 0.0776,5.38501 -0.31247,7.25134 -0.0992,0.47474 -0.0911,0.47952 0.83532,0.49231 0.51454,0.007 1.28853,0.0757 1.71998,0.15251 0.43145,0.0768 1.04844,0.1494 1.37106,0.1614 0.58634,0.0218 0.58648,0.0216 0.30172,-0.41296 z m 16.82165,-1.61353 c 0.10001,-0.26366 0.68092,-1.65812 1.29092,-3.09879 1.39532,-3.29536 2.31017,-6.01906 2.62929,-7.82797 0.38448,-2.17948 0.77028,-6.40299 0.77162,-8.44758 0.002,-1.82172 -0.44747,-5.73074 -0.68795,-5.99378 -0.14898,-0.16293 -1.52786,2.69269 -1.68546,3.49051 -0.10611,0.53714 -0.085,0.56655 0.40582,0.56655 0.55451,0 1.20526,0.55179 1.01458,0.86029 -0.0629,0.10174 -0.54012,0.38642 -1.06057,0.63263 -2.08689,0.98725 -3.95339,3.5826 -4.5285,6.29681 -0.34455,1.62612 -0.33535,2.32104 0.0308,2.32104 0.26842,0 0.26842,0.0222 7e-5,0.31871 -0.25607,0.28296 -0.26794,0.53227 -0.1057,2.22262 0.1005,1.04716 0.24833,2.37459 0.3285,2.94986 0.0802,0.57527 0.12659,1.06764 0.10311,1.09415 -0.0883,0.0998 -1.49069,-1.88087 -2.06341,-2.91421 l -0.59598,-1.07528 -0.46762,0.55575 c -0.99018,1.17675 -1.39179,2.57244 -1.00528,3.49361 0.0652,0.15532 0.70683,0.75248 1.42592,1.32703 0.71908,0.57455 1.85654,1.63404 2.52769,2.35443 0.67115,0.72038 1.28103,1.31952 1.35533,1.3314 0.0743,0.0119 0.21688,-0.19411 0.31687,-0.45778 z M 161.8051,82.061484 c 1.20916,-0.61272 2.50051,-1.72473 4.45302,-3.83456 l 1.72973,-1.86909 -0.50946,-0.94285 c -0.5658,-1.04714 -0.49604,-1.42509 0.31659,-1.71484 0.34546,-0.12317 0.58763,-0.0666 1.11504,0.2604 0.37058,0.22977 0.7326,0.39863 0.80451,0.37526 0.0719,-0.0234 0.13074,0.0468 0.13074,0.156 0,0.30089 1.84818,2.49637 2.55584,3.03614 0.83655,0.63806 2.1651,1.12383 3.06796,1.12174 1.51004,-0.003 3.41549,-1.32688 4.78658,-3.32444 0.46633,-0.67939 2.48956,-4.53454 2.48956,-4.74369 0,-0.0387 -0.76484,-0.0357 -1.69965,0.007 -2.17742,0.0987 -3.85484,-0.24551 -5.75022,-1.17996 -2.71246,-1.33728 -4.82538,-4.08804 -5.05096,-6.57574 l -0.0953,-1.05077 -1.72042,0.76279 c -3.51801,1.55981 -6.62492,2.24404 -9.67285,2.13025 -2.37465,-0.0887 -3.6176,-0.58331 -4.91633,-1.95653 -0.79155,-0.83694 -1.58027,-2.40422 -1.61317,-3.20548 -0.007,-0.16419 -0.0721,-0.4516 -0.14533,-0.63868 -0.11277,-0.28824 -0.26642,-0.14188 -1.0066,0.95878 -1.30753,1.94429 -2.38949,3.88871 -3.27423,5.88419 -0.92402,2.08402 -2.18588,5.76654 -2.18588,6.37905 0,1.05514 3.53622,4.90845 6.57019,7.15932 1.7702,1.31329 4.60606,2.80757 5.98808,3.15525 1.22938,0.30927 2.59141,0.17832 3.63254,-0.34926 z m 30.29707,-22.53469 c 0.35006,-0.54721 1.09231,-1.95942 1.64947,-3.13824 1.08372,-2.29288 2.56897,-4.98014 2.80722,-5.07906 0.0798,-0.0331 0.36927,-0.24887 0.64324,-0.47939 0.69311,-0.58321 0.88359,-0.5279 0.88359,0.25657 0,0.64678 0.10261,0.76857 2.39695,2.84507 2.67594,2.42187 5.78104,5.02108 5.99833,5.02108 0.35188,0 1.29136,-1.83269 2.12689,-4.14897 l 0.44798,-1.24193 -1.69354,-1.3382 c -5.70594,-4.50872 -10.73111,-6.7537 -17.10853,-7.64319 -4.85443,-0.67708 -11.70461,-0.0601 -17.78172,1.60159 l -1.12117,0.30656 -0.009,2.44053 c -0.0106,2.78528 0.16603,3.3361 1.4392,4.48634 0.87528,0.79077 1.15972,0.94081 2.39196,1.26176 l 0.99785,0.25991 1.24118,-0.77359 c 2.00214,-1.24788 3.40187,-1.70952 5.24634,-1.73028 1.2742,-0.0144 1.72504,0.0544 2.40005,0.36614 1.27809,0.59018 2.37333,1.85007 3.52134,4.05067 0.92986,1.78246 2.33241,3.67157 2.72595,3.67157 0.0882,0 0.44674,-0.44772 0.79678,-0.99494 z M 34.193276,122.40086 c -1.022251,-0.0756 -2.316604,-0.2348 -2.876339,-0.35372 l -1.017702,-0.21625 2.091884,-0.30657 c 11.828099,-1.73342 24.140993,-7.88829 32.559445,-16.27557 6.636447,-6.611876 11.513359,-15.081416 14.359697,-24.937886 0.64043,-2.21773 1.345952,-5.35013 1.53206,-6.80202 l 0.111724,-0.87162 -0.965822,1.7949 c -1.560737,2.9005 -2.633664,4.35707 -4.781749,6.49159 -1.525174,1.51552 -2.328178,2.16914 -3.259973,2.65348 -3.515113,1.82716 -6.5485,1.53185 -9.941221,-0.96781 l -1.066808,-0.78599 -1.896693,1.30359 c -9.106577,6.25885 -14.486238,8.3637 -18.622658,7.2863 -2.303634,-0.60002 -4.899155,-2.45413 -6.135877,-4.38315 -0.836282,-1.30442 -1.439878,-3.25856 -1.569191,-5.0802 l -0.110364,-1.5548 -1.317712,1.58927 c -1.925579,2.32242 -5.150321,5.4594 -6.72387,6.54089 -2.529348,1.7384 -4.919987,2.43886 -7.130672,2.08927 -3.849535,-0.60876 -7.00406,-4.27108 -8.3458988,-9.68939 -0.506898,-2.04684 -0.540978,-5.73064 -0.07304,-7.8934 1.8798358,-8.68848 8.6075408,-16.82348 16.6988218,-20.19189 1.842287,-0.76694 3.283995,-1.07467 5.048952,-1.07769 2.645622,-0.005 4.320471,0.72755 6.538425,2.85797 l 1.19375,1.14664 -1.144643,-0.50905 c -1.308926,-0.58211 -3.572745,-1.05761 -5.035215,-1.05761 -2.280292,0 -5.415572,1.28109 -8.302859,3.39259 -3.17044,2.31856 -6.784604,6.5684 -8.525068,10.0245 -1.415734,2.81128 -2.356297,6.40784 -2.356297,9.0101 0,4.64384 2.419507,9.18136 5.029445,9.43214 2.942756,0.28277 6.75781,-3.09321 13.348358,-11.81211 3.39999,-4.49798 4.118168,-5.58676 5.470745,-8.29374 2.225973,-4.45499 4.922079,-8.02447 6.353014,-8.41098 1.873665,-0.50609 3.505822,1.22063 2.939741,3.11006 -0.109789,0.36644 -1.406983,2.47921 -2.88265,4.69505 -2.850208,4.27982 -3.429346,5.44327 -4.430486,8.90063 -1.249099,4.31365 -1.420842,7.55966 -0.499594,9.44262 0.577586,1.18058 1.562601,2.11261 2.89093,2.73544 0.883698,0.41437 1.176126,0.45883 2.98442,0.45377 1.256629,-0.004 2.557658,-0.12377 3.486471,-0.32227 2.377652,-0.50813 12.551299,-3.91942 12.551299,-4.20852 0,-0.0356 -0.395837,-0.5877 -0.879654,-1.22689 -3.615506,-4.77675 -4.624143,-11.28637 -2.678535,-17.28701 1.474761,-4.54848 4.159762,-7.90477 7.774676,-9.71852 2.142454,-1.07495 3.673922,-1.38074 6.309642,-1.25986 2.900483,0.13301 3.940323,0.49483 6.296098,2.19076 2.234096,1.60834 2.257002,1.63736 0.907319,1.14943 -1.546477,-0.55908 -4.602718,-0.84116 -6.506001,-0.60048 -3.047926,0.38542 -5.077296,1.33547 -7.054056,3.30235 -1.877657,1.86825 -2.970753,3.88508 -3.860291,7.12239 -0.479913,1.74657 -0.532838,5.50377 -0.09989,7.09266 1.007399,3.69711 2.879216,6.39849 5.256885,7.58662 2.110135,1.05445 3.689594,0.57823 6.243295,-1.88239 3.555608,-3.426 5.748669,-7.91808 7.465652,-15.29203 0.63588,-2.73092 0.958902,-3.40966 1.816364,-3.81656 0.986498,-0.46812 1.882486,-0.28912 2.764441,0.5523 1.260709,1.20274 2.107363,7.21485 1.707605,12.12585 -0.750185,9.21636 -4.164678,19.4672 -9.160705,27.50183 -6.170306,9.923156 -14.814577,17.139256 -25.037644,20.901046 -5.452215,2.00625 -12.118279,3.00373 -17.441982,2.60994 z m -62.120998,-11.70743 0.241618,-0.81795 -1.678243,-1.18677 c -2.056788,-1.45446 -4.834567,-4.19561 -6.21518,-6.13324 -0.566712,-0.79535 -1.410002,-2.18712 -1.873979,-3.092806 -0.677723,-1.32294 -0.843592,-1.81871 -0.843592,-2.52147 0,-1.20698 0.380601,-1.86001 1.328405,-2.27927 0.967022,-0.42776 1.386443,-0.34662 2.958688,0.5724 0.662256,0.38711 1.268966,0.71698 1.348245,0.73305 0.07928,0.0161 0.281826,-0.40224 0.450098,-0.92957 0.687728,-2.15516 2.02013,-3.87518 3.71838,-4.80009 2.579716,-1.40499 4.663048,0.0439 4.990374,3.47072 0.246737,2.58311 -0.479313,7.190126 -1.89742,12.039736 -0.381765,1.30555 -0.694118,2.47833 -0.694118,2.60619 0,0.12785 0.239953,0.76167 0.533228,1.40847 0.293277,0.64681 0.506781,1.20246 0.474455,1.23479 -0.03233,0.0323 -0.515742,-0.14797 -1.074259,-0.40067 -0.882191,-0.39913 -1.035083,-0.42442 -1.164803,-0.19262 -0.08213,0.14675 -0.305512,0.45587 -0.496417,0.68694 l -0.347098,0.42012 z m 1.457586,-7.37525 c 0.725203,-4.305086 0.989157,-7.283806 0.759648,-8.572626 -0.223244,-1.25366 -0.491371,-1.97395 -0.734793,-1.97395 -0.101828,0 -0.530437,0.35528 -0.952462,0.78951 -0.854897,0.87963 -1.277172,1.85198 -1.833642,4.22224 -0.39246,1.67166 -0.874055,2.373876 -1.799027,2.623186 -0.450626,0.12146 -0.438525,0.14457 1.478789,2.82447 1.063222,1.48611 2.015043,2.88065 2.115157,3.09898 0.100116,0.21832 0.239566,0.33599 0.30989,0.26148 0.07033,-0.0745 0.365724,-1.54749 0.65644,-3.27329 z m 23.6923772,-7.056256 c -1.016133,-0.7993 -3.05096,-4.43897 -4.569165,-8.17287 -2.15939,-5.31081 -4.4278472,-13.78317 -6.0975432,-22.77342 -1.29203,-6.95677 -2.094919,-12.27445 -3.763789,-24.92827 -1.596042,-12.101621 -2.542529,-16.023995 -5.07399,-21.02735 -0.874945,-1.729306 -1.042559,-2.588662 -0.652592,-3.345835 0.644244,-1.25088 1.817918,-1.724121 3.080291,-1.242017 1.144553,0.437109 3.021547,0.240237 6.572885,-0.689408 6.2886402,-1.646197 7.0454202,-1.835126 9.4182152,-2.35123 6.5726969,-1.429628 11.881582,-2.0370415 16.4581868,-1.8830605 4.443892,0.149516 6.526919,0.6827855 9.16264,2.3456965 2.386821,1.505878 4.349251,3.835459 5.173366,6.141267 0.356683,0.997929 0.404361,1.445043 0.399724,3.747957 -0.0047,2.290197 -0.06643,2.852935 -0.497833,4.532413 -1.721603,6.7025 -6.719129,17.201887 -11.876806,24.952187 -5.4807508,8.23577 -10.1598398,12.09158 -14.673357,12.09158 -1.1966966,0 -2.4137538,-0.39485 -2.6651988,-0.86467 -0.136425,-0.25492 -0.07102,-0.30313 0.437169,-0.32223 0.8012958,-0.0301 1.7033158,-0.51333 3.2444758,-1.73803 1.8775522,-1.49202 3.9197182,-3.95076 6.5475242,-7.88314 4.2144468,-6.3067 10.1097568,-17.636223 12.4814298,-23.9866 1.687871,-4.519396 2.148869,-7.63144 1.384652,-9.347071 -0.443863,-0.996438 -1.699341,-2.373466 -2.819126,-3.092026 -4.194592,-2.691666 -13.9172808,-1.970751 -29.458935,2.184317 -2.232343,0.596816 -6.112172,1.468549 -6.536091,1.468549 -0.02987,0 0.174481,0.764844 0.454112,1.699655 1.151053,3.848005 1.671507,6.987909 2.940059,17.737426 1.182917,10.02386 1.611125,13.28239 2.531345,19.26276 2.5884022,16.82161 5.2112102,26.98737 9.0096692,34.92062 0.8393153,1.75293 1.0305832,2.29808 0.8868534,2.52769 -0.2700447,0.43143 -0.9733884,0.44791 -1.4981714,0.0351 z m 96.0949728,-5.14766 c -3.307215,-0.80615 -5.616253,-2.98948 -6.608991,-6.24917 -0.435827,-1.43107 -0.489292,-4.11433 -0.116849,-5.86506 0.902839,-4.24393 4.042198,-10.00705 8.35644,-15.34047 1.62868,-2.0134 5.583846,-5.98144 7.521386,-7.54582 6.2401,-5.03832 11.17799,-6.42824 13.23876,-3.72645 0.55902,0.73292 0.79743,1.94856 0.59528,3.03548 -0.47099,2.53259 -3.81978,7.37159 -7.9942,11.55163 -3.72502,3.73002 -7.17769,5.8875 -10.104646,6.31411 l -1.46294,0.21323 -0.99813,2.09543 c -2.26134,4.74735 -2.504939,7.71034 -0.70416,8.56505 0.84123,0.39928 2.79913,0.50762 4.58363,0.25363 5.170786,-0.73596 15.587736,-4.49137 27.992586,-10.0916 1.07863,-0.48695 1.96114,-0.84966 1.96114,-0.80603 0,0.195 -5.32198,4.0261 -8.88259,6.39427 -5.31799,3.537 -8.82749,5.61767 -13.16935,7.8077 -6.3231,3.18936 -10.729056,4.24192 -14.207366,3.39407 z m 6.67743,-20.51203 c 2.933936,-1.71635 6.832316,-5.68637 9.517526,-9.69245 0.91766,-1.36904 2.33276,-4.05753 2.20368,-4.18662 -0.35256,-0.35256 -5.15824,3.71741 -7.51698,6.36618 -2.38947,2.68329 -6.174916,7.76301 -6.174916,8.28617 0,0.24493 0.69907,-0.0294 1.97069,-0.77328 z m -120.272967,13.81525 c -0.562223,-0.37613 -2.106013,-1.63807 -3.430644,-2.8043 l -2.40842,-2.12043 -1.262509,0.16871 c -1.174397,0.15692 -2.557043,0.0594 -3.29807,-0.23266 -0.295379,-0.11641 -0.296169,-0.14134 -0.01433,-0.45277 0.164042,-0.18126 0.719213,-0.60898 1.233715,-0.95049 l 0.935459,-0.62092 -1.664021,-1.59924 c -1.531668,-1.47204 -1.663863,-1.65187 -1.662,-2.26088 0.0014,-0.47682 0.127508,-0.78712 0.451249,-1.11086 0.4883,-0.4883 0.350725,-0.48452 4.4341,-0.12184 l 1.13537,0.10084 0.572184,-0.88303 c 0.778403,-1.20128 1.724923,-2.31632 2.277311,-2.68278 1.239964,-0.82259 2.539169,0.0329 3.436762,2.26291 0.307918,0.76502 0.610769,1.26479 0.769318,1.26955 0.143817,0.004 0.809504,0.0784 1.479308,0.16468 1.38661,0.17855 1.83284,0.53977 1.83284,1.48365 0,0.74869 -0.485178,1.33295 -1.655288,1.99332 -0.527761,0.29785 -0.959566,0.60491 -0.959566,0.68237 0,0.0774 0.195912,1.39075 0.435357,2.91843 0.239448,1.52768 0.435562,3.18247 0.435809,3.67731 3.49e-4,0.79092 -0.0644,0.95427 -0.535895,1.35101 -0.743427,0.62555 -1.336596,0.57119 -2.538033,-0.23258 z m -0.114828,-4.07964 c -0.04878,-0.12711 -0.144753,-0.75467 -0.213282,-1.39459 -0.06853,-0.63991 -0.184324,-1.16348 -0.257324,-1.16348 -0.073,0 -0.397256,0.10609 -0.720568,0.23575 -0.323311,0.12966 -0.734567,0.28771 -0.913899,0.35123 -0.277326,0.0982 -0.160083,0.27027 0.784456,1.15112 1.097826,1.02381 1.492988,1.26916 1.320617,0.81997 z m -3.435089,-4.77986 1.307427,-0.48023 -1.3805,-0.0515 c -1.460925,-0.0544 -2.003912,0.16901 -1.786633,0.73523 0.143613,0.37424 0.347367,0.35194 1.859706,-0.20355 z m 2.022628,-3.45992 c -0.05861,-0.15273 -0.153947,-0.46651 -0.211871,-0.6973 -0.05792,-0.23079 -0.176365,-0.41961 -0.263199,-0.41961 -0.179968,0 -1.186033,1.06509 -1.193801,1.26384 -0.0028,0.0719 0.395511,0.13075 0.885159,0.13075 0.742807,0 0.872619,-0.046 0.783712,-0.27768 z m 274.840292,12.0723 c -0.21931,-0.12174 -1.04299,-1.123 -1.8304,-2.22502 -2.49113,-3.4865 -2.52512,-3.522 -3.24745,-3.39236 -0.65802,0.11811 -4.49197,0.60663 -4.83391,0.61594 -0.10984,0.003 -0.45141,0.39767 -0.75904,0.87706 -0.30763,0.47939 -0.58688,0.87161 -0.62057,0.87161 -0.0337,0 0.0529,-0.32364 0.1925,-0.71921 0.34726,-0.98424 0.33263,-1.0276 -0.3128,-0.92699 -0.56244,0.0877 -0.56133,0.0856 0.15175,-0.28926 0.67954,-0.35719 0.75794,-0.4842 1.45223,-2.35278 0.40365,-1.08637 0.68337,-2.057 0.62159,-2.15696 -0.0618,-0.1 -1.06829,-0.74369 -2.23668,-1.4305 -2.88418,-1.69541 -3.55775,-2.19417 -3.76464,-2.78764 -0.35408,-1.01576 0.33437,-1.80272 1.73878,-1.98751 0.42521,-0.0559 2.22436,0.0658 3.99811,0.2706 2.62843,0.30346 3.2497,0.33014 3.3586,0.14423 0.0735,-0.12546 0.84925,-1.48324 1.72392,-3.01729 2.80635,-4.92193 3.22785,-5.36733 4.47095,-4.72449 0.92838,0.48009 1.51032,2.82862 1.71808,6.93363 0.11314,2.23514 0.11512,2.24338 0.56589,2.34243 2.62042,0.57574 4.22888,1.21314 4.54315,1.80035 0.35817,0.66926 0.21407,1.51905 -0.35389,2.08702 -0.6286,0.62859 -2.29196,1.58636 -3.66796,2.11203 l -0.97703,0.37325 -0.11161,1.68516 c -0.0614,0.92683 -0.112,2.49279 -0.11249,3.47989 0,1.67249 -0.03,1.82389 -0.42878,2.22263 -0.48024,0.48024 -0.70225,0.51396 -1.2783,0.19418 z m -0.62816,-6.49101 c -0.0657,-0.17111 -0.22864,-0.18877 -0.6437,-0.0697 -0.30568,0.0877 -0.59082,0.19443 -0.63363,0.23724 -0.0428,0.0428 0.2228,0.48149 0.59024,0.97483 l 0.66806,0.89699 0.0535,-0.90509 c 0.0294,-0.4978 0.0139,-1.0082 -0.0344,-1.13423 z m -6.91168,-0.48335 1.26032,-0.58376 -0.66755,-0.55026 c -0.36716,-0.30264 -0.73108,-0.52908 -0.80872,-0.5032 -0.22065,0.0735 -1.38605,2.22099 -1.20533,2.22099 0.0885,0 0.72812,-0.26269 1.42128,-0.58377 z m 5.24445,-2.00336 1.47388,-0.49524 v -1.29157 -1.29158 l -1.91756,-0.29374 c -2.88754,-0.44233 -2.75461,-0.46726 -3.32598,0.62403 l -0.49237,0.94042 0.60174,0.49775 c 0.33097,0.27376 0.91553,0.78996 1.29905,1.1471 0.38351,0.35715 0.74007,0.65132 0.79233,0.65372 0.0523,0.002 0.75829,-0.2185 1.56891,-0.49089 z m 5.09859,-1.88454 c 0.50912,-0.26327 0.52701,-0.29951 0.20925,-0.42356 -0.19112,-0.0746 -0.524,-0.14116 -0.73972,-0.1479 -0.30543,-0.01 -0.39223,0.0842 -0.39223,0.42355 0,0.51143 0.16773,0.53832 0.9227,0.14791 z m -10.22121,-2.09414 c -0.0613,-0.0632 -2.6353,-0.38544 -2.68465,-0.33609 -0.0292,0.0292 0.4382,0.37584 1.03857,0.77039 l 1.09159,0.71735 0.29114,-0.56149 c 0.16014,-0.30882 0.27864,-0.57439 0.26335,-0.59016 z m 6.60688,-2.97841 c -0.22838,-2.89644 -0.30398,-3.53005 -0.42125,-3.53005 -0.15869,0 -2.886,4.34432 -2.78851,4.44181 0.0876,0.0876 2.10773,0.38664 2.82202,0.41773 l 0.49426,0.0215 z m -11.13361,-26.2297 c -2.47353,-3.23343 -2.92511,-8.38815 -1.07338,-12.252232 0.74562,-1.555915 1.52512,-2.487601 2.42216,-2.895025 1.42299,-0.646306 2.79294,-0.264135 4.08088,1.138433 0.96298,1.048675 1.44478,2.142269 1.55638,3.532741 0.0536,0.667614 0.16782,1.100191 0.29051,1.100191 0.11122,0 1.10066,-0.30154 2.19876,-0.670088 2.97556,-0.99866 3.69315,-1.144347 4.43334,-0.900064 0.84856,0.280051 1.24513,1.044346 0.98767,1.903521 -0.41296,1.378124 -1.82754,3.12615 -4.69363,5.799983 -3.06318,2.8577 -5.67148,4.49998 -7.1474,4.50025 -0.88731,1.6e-4 -1.046,-0.25221 -0.75962,-1.20806 0.29759,-0.99323 1.33065,-2.04477 4.57394,-4.655732 1.6204,-1.304479 2.94619,-2.400451 2.94619,-2.435494 0,-0.03504 -0.44019,0.130957 -0.97818,0.368888 -1.54076,0.681393 -3.2347,1.153224 -3.74101,1.042021 -0.25383,-0.05575 -0.6801,-0.329524 -0.94727,-0.608379 -0.48375,-0.504933 -0.48526,-0.514007 -0.36798,-2.216897 0.12726,-1.847604 -0.0253,-2.632611 -0.64439,-3.316899 -0.19519,-0.215725 -0.45875,-0.392228 -0.58567,-0.392228 -0.36068,0 -1.23043,1.517482 -1.7485,3.050663 -0.42788,1.266278 -0.46977,1.619132 -0.45532,3.835119 0.0106,1.631028 0.13461,3.104068 0.37375,4.441018 0.1968,1.10026 0.33359,2.0247 0.30399,2.0543 -0.0296,0.0296 -0.49095,-0.51762 -1.02522,-1.21603 z M 65.301791,34.618352 c -1.56811,-0.758764 -2.996779,-2.502324 -4.400189,-5.370028 -1.410992,-2.883157 -2.449107,-5.604974 -2.449107,-6.421246 0,-0.709511 0.369427,-1.265471 1.087693,-1.636899 1.304045,-0.674349 3.741768,0.324091 6.514176,2.668082 0.489727,0.414049 0.962318,0.752815 1.050212,0.752815 0.08789,0 0.667782,-0.603184 1.288635,-1.340409 3.74991,-4.452758 4.591596,-5.196726 5.879342,-5.196726 2.00568,0 2.161456,2.326692 0.390886,5.838525 -1.801687,3.573539 -6.498069,9.482619 -8.046202,10.123879 -0.424617,0.175877 -0.500413,0.28959 -0.416337,0.624586 0.05655,0.225259 0.08169,0.406697 0.05591,0.403195 -0.0258,-0.0035 -0.45556,-0.204098 -0.955015,-0.445774 z m 0.125356,-2.380618 c 0.0023,-0.72442 0.659554,-2.134598 1.666726,-3.575376 0.780778,-1.116914 0.785136,-1.130919 0.324277,-1.042821 -0.80344,0.15359 -1.505598,-0.17311 -3.116436,-1.449999 -1.525471,-1.209238 -2.53707,-1.857504 -2.53707,-1.625841 0,0.325612 1.145898,3.763269 1.663692,4.990984 0.639732,1.516864 1.636619,3.269604 1.859614,3.269604 0.07562,0 0.138256,-0.254948 0.139197,-0.566551 z M 202.12627,30.975978 c 0.0171,-0.622057 -0.009,-1.17138 -0.0586,-1.220717 -0.0493,-0.04934 -0.55363,0.06983 -1.12066,0.264813 l -1.03096,0.354517 1.07631,-1.094941 1.07629,-1.09494 0.0568,-1.645352 0.0568,-1.645353 -2.70201,-1.106629 c -1.61225,-0.660308 -2.82349,-1.262246 -3.00321,-1.492471 -0.41217,-0.528032 -0.38357,-1.064098 0.0859,-1.609919 0.32457,-0.377337 0.78231,-0.547878 2.57127,-0.957979 1.19703,-0.274405 2.52569,-0.604079 2.95257,-0.732609 l 0.77616,-0.233692 0.64,-3.742692 c 0.77443,-4.528898 0.80359,-4.643345 1.26571,-4.967026 0.477,-0.3341075 1.33085,-0.3287045 1.81656,0.01149 0.54399,0.381033 1.75247,2.131748 2.92263,4.234021 0.742,1.33303 1.07549,1.779694 1.28367,1.719232 0.15468,-0.04493 1.37948,-0.406671 2.72177,-0.803876 2.72848,-0.807401 5.48082,-1.408847 6.44718,-1.408847 0.48065,0 0.77189,0.132151 1.17112,0.531386 0.45823,0.458221 0.51895,0.624193 0.44099,1.205437 -0.1851,1.379977 -1.68156,2.943896 -5.58669,5.838487 -1.13287,0.839735 -2.02093,1.616461 -1.97344,1.726059 2.29694,5.300816 2.64609,6.652953 1.87847,7.274689 -0.74931,0.606916 -1.37236,0.43424 -5.11479,-1.417565 l -3.53849,-1.750895 -2.01916,1.01002 -2.01915,1.01002 -0.47577,1.43817 c -0.26167,0.790993 -0.51014,1.43817 -0.55213,1.43817 -0.042,0 -0.0624,-0.508955 -0.0452,-1.131013 z m 10.24979,-5.214847 c -0.30324,-0.728408 -0.59598,-1.324378 -0.65056,-1.324378 -0.17901,0 -1.78581,1.079427 -1.78581,1.199696 0,0.12828 2.84148,1.581436 2.93202,1.499467 0.0306,-0.02772 -0.19242,-0.646376 -0.49565,-1.374785 z m -8.15918,0.653324 c 0.4094,-0.370498 0.40232,-0.520606 -0.0299,-0.633624 -0.21906,-0.05729 -0.34865,-0.0054 -0.34865,0.139734 0,0.127 -0.0476,0.354993 -0.10582,0.506651 -0.13721,0.357569 0.0815,0.351806 0.48433,-0.01276 z m 4.60193,-3.298132 c 0.90411,-0.630358 1.64385,-1.220658 1.64385,-1.311778 0,-0.09112 -0.27396,-0.709707 -0.60882,-1.374638 l -0.60883,-1.208962 -2.22393,0.787952 c -1.22316,0.433373 -2.27869,0.842085 -2.34561,0.908248 -0.0669,0.06616 -0.19191,0.56882 -0.27778,1.117013 l -0.15613,0.996717 1.23658,0.601895 c 0.68011,0.331041 1.34012,0.60814 1.46669,0.615776 0.12658,0.0076 0.96987,-0.501864 1.87398,-1.132223 z m -6.31199,-1.207263 c 0.0725,-0.188912 -0.0191,-0.261485 -0.33,-0.261485 -0.45146,0 -0.58543,0.257009 -0.21243,0.40752 0.36308,0.146505 0.4379,0.12636 0.54243,-0.146035 z m 13.48759,-3.792803 c 1.59853,-1.19074 1.95906,-1.524066 1.64849,-1.524066 -0.19012,0 -3.30328,0.905194 -4.86646,1.414984 l -1.08553,0.354018 0.52399,1.037993 0.52398,1.037992 0.82303,-0.561025 c 0.45267,-0.308565 1.54728,-1.100519 2.4325,-1.759896 z m -9.50758,-0.59162 c 0.70061,-0.254178 1.33478,-0.515177 1.40929,-0.579997 0.1504,-0.130847 -1.47703,-3.18206 -1.74484,-3.271331 -0.0929,-0.03096 -0.36518,0.9269 -0.60508,2.128586 -0.23989,1.201687 -0.41299,2.184884 -0.38468,2.184884 0.0283,0 0.62471,-0.207964 1.32531,-0.462142 z m -71.26495,13.451775 c -0.66006,-0.334184 -2.02379,-1.238906 -3.03051,-2.010494 -1.00672,-0.771587 -1.98976,-1.515755 -2.18457,-1.653708 -0.31552,-0.22346 -0.47215,-0.203162 -1.4358,0.186069 -0.59489,0.240291 -1.50486,0.493038 -2.02215,0.561662 -0.87247,0.115741 -0.99338,0.191756 -1.67081,1.050472 -0.54388,0.689435 -0.82723,0.911854 -1.11014,0.871442 -0.53034,-0.07576 -0.45478,-0.738204 0.23997,-2.103358 0.60018,-1.179341 1.55921,-3.573655 1.55921,-3.892739 0,-0.108605 -0.98572,-0.850406 -2.19047,-1.648447 -2.61419,-1.73168 -3.11438,-2.251132 -2.97781,-3.092597 0.19904,-1.226562 0.7218,-1.478837 4.78827,-2.310727 1.76215,-0.360487 3.26841,-0.722143 3.34726,-0.803681 0.0788,-0.08154 0.6239,-1.355017 1.21125,-2.829958 1.74146,-4.3732615 2.07987,-4.9013675 3.14086,-4.9013675 0.46471,0 0.75675,0.12817 1.09229,0.47939 0.63042,0.65986 1.43702,2.4561735 1.89817,4.2273485 0.21221,0.814963 0.39265,1.49597 0.401,1.51335 0.008,0.01738 0.75925,-0.08012 1.6687,-0.216672 0.90944,-0.13655 2.19088,-0.248826 2.84764,-0.249504 1.12631,-0.0012 1.22778,0.03243 1.78682,0.591468 1.14114,1.141148 0.64128,2.594836 -1.54833,4.502775 -0.83612,0.728564 -3.26924,2.666802 -3.5726,2.845958 -0.0265,0.01564 0.0683,1.039631 0.21069,2.275559 0.62453,5.422716 0.56473,6.598513 -0.35688,7.01843 -0.62882,0.286506 -0.76966,0.258858 -2.09206,-0.410671 z m 0.20173,-4.14271 c -0.0702,-0.886871 -0.17903,-1.940129 -0.24179,-2.340575 l -0.11411,-0.728082 -1.52224,0.989567 c -0.83723,0.544263 -1.49976,1.068013 -1.47231,1.163891 0.0611,0.213289 3.10216,2.527692 3.3213,2.527692 0.0908,0 0.10306,-0.679058 0.0292,-1.612493 z m -7.93897,-1.618626 c 0,-0.206959 -0.49726,-0.05082 -0.58756,0.18449 -0.0831,0.216625 -0.0384,0.231545 0.24283,0.08103 0.18959,-0.10147 0.34473,-0.220953 0.34473,-0.26552 z m 7.02801,-4.638449 c 0.15293,-0.102792 -0.0936,-2.512143 -0.27566,-2.694224 -0.10062,-0.100609 -4.18931,0.820869 -4.41021,0.993939 -0.20548,0.160971 -1.73283,3.800429 -1.62526,3.872711 0.0372,0.02497 0.36544,0.298091 0.72948,0.606937 l 0.66192,0.56154 2.37642,-1.614368 c 1.30702,-0.887901 2.45151,-1.664842 2.54331,-1.726535 z m -7.55738,-0.08508 c 0.20202,-0.539938 0.33315,-1.01586 0.2914,-1.057606 -0.0417,-0.04175 -0.7141,0.02179 -1.49411,0.141203 -1.59463,0.244107 -1.59442,0.241114 -0.0859,1.284613 0.47254,0.326855 0.87314,0.598606 0.89022,0.603888 0.0171,0.0053 0.19634,-0.432162 0.39835,-0.972098 z m 11.14825,-2.525904 c 0.49627,-0.395135 0.86433,-0.756402 0.81793,-0.802814 -0.0464,-0.04641 -0.5668,-0.02839 -1.15641,0.04004 -0.9857,0.114403 -1.06397,0.154486 -0.97186,0.497748 0.0551,0.205329 0.10123,0.510606 0.10254,0.678393 0.003,0.451696 0.21015,0.380987 1.2078,-0.413364 z m -5.5285,-2.612333 c 0.50809,-0.106116 0.98281,-0.247508 1.05494,-0.314204 0.13993,-0.129373 -0.49924,-2.798096 -0.72574,-3.030189 -0.115,-0.11783 -1.07839,1.770415 -1.59051,3.117422 -0.18813,0.494847 -0.0985,0.510977 1.26131,0.226971 z m 42.37434,11.829038 c 1.34036,-1.880394 2.94411,-5.38992 4.04284,-8.846922 0.55487,-1.745788 1.33764,-5.088344 1.21931,-5.206661 -0.0454,-0.04539 -0.25872,0.07396 -0.47406,0.265235 -3.99072,3.544538 -4.24023,3.722313 -5.22036,3.719525 -0.82466,-0.0024 -2.23922,-0.879523 -3.21795,-1.995444 -0.46406,-0.529112 -0.90257,-0.963012 -0.97448,-0.964222 -0.25953,-0.0044 -0.12314,2.22735 0.21503,3.518447 0.19017,0.726056 0.78998,2.447022 1.33291,3.824368 0.97714,2.47885 2.07551,6.042616 1.91259,6.205539 -0.16824,0.168237 -2.07192,-1.638339 -2.98175,-2.829652 -2.87069,-3.758832 -4.1898,-8.453473 -3.24721,-11.55671 0.61686,-2.030877 1.7756,-2.844972 3.11045,-2.185284 0.45767,0.226192 0.96795,0.787177 1.75286,1.927076 0.60898,0.884399 1.3479,1.77937 1.64206,1.988823 0.51486,0.366616 0.55513,0.36981 1.07917,0.08557 0.29938,-0.162389 1.32879,-0.958665 2.28757,-1.769501 2.41613,-2.043301 3.31904,-2.414291 4.0121,-1.648477 0.65571,0.724569 0.0999,3.673108 -1.51116,8.015956 -1.98942,5.362865 -3.93037,8.541857 -5.21533,8.541857 h -0.5412 z"
       id="path3210" /><path
       d="m 161.58768,100.46705 c -0.5471,-0.60452 0.175,-1.304065 0.92937,-0.900345 0.39582,0.211835 0.46541,0.695235 0.14605,1.014595 -0.30322,0.30322 -0.73957,0.25687 -1.07542,-0.11425 z m -0.0437,15.5851 c -0.13303,-0.34665 0.0641,-0.61848 0.44836,-0.61848 0.34268,0 0.52761,0.29925 0.40398,0.65371 -0.10488,0.30061 -0.73344,0.27463 -0.85234,-0.0352 z m -3.64825,-5.40069 c -0.38504,-0.58766 -0.084,-1.1448 0.6185,-1.1448 0.70255,0 1.00355,0.55714 0.6185,1.1448 -0.15282,0.23326 -0.43117,0.42412 -0.6185,0.42412 -0.18732,0 -0.46567,-0.19086 -0.6185,-0.42412 z"
       style="fill:#fff7a2;fill-opacity:1;stroke-width:0.174324"
       id="path8535" /></g></svg>
